<?xml version="1.0" encoding="UTF-8" standalone="no"?>
<svg
   xmlns:dc="http://purl.org/dc/elements/1.1/"
   xmlns:cc="http://creativecommons.org/ns#"
   xmlns:rdf="http://www.w3.org/1999/02/22-rdf-syntax-ns#"
   xmlns:svg="http://www.w3.org/2000/svg"
   xmlns="http://www.w3.org/2000/svg"
   xmlns:sodipodi="http://sodipodi.sourceforge.net/DTD/sodipodi-0.dtd"
   xmlns:inkscape="http://www.inkscape.org/namespaces/inkscape"
   version="1.1"
   id="svg2"
   xml:space="preserve"
   width="739.34668"
   height="497.33334"
   viewBox="0 0 739.34668 497.33334"
   sodipodi:docname="1079774846-vector.eps"><metadata
     id="metadata8"><rdf:RDF><cc:Work
         rdf:about=""><dc:format>image/svg+xml</dc:format><dc:type
           rdf:resource="http://purl.org/dc/dcmitype/StillImage" /></cc:Work></rdf:RDF></metadata><defs
     id="defs6"><clipPath
       clipPathUnits="userSpaceOnUse"
       id="clipPath22"><path
         d="m 2850.42,2935.86 c 41.13,-178.75 -380.39,-201.72 -554.08,-203.67 -48.16,-0.53 -96.06,4.03 -143.26,13.61 -146.88,29.8 -468.4,108.02 -423.3,214.38 58.17,137.21 232.94,41.54 232.94,41.54 0,0 -21.94,103.6 275.44,172.02 297.38,68.42 296.19,-159.58 296.19,-159.58 0,0 264.41,146.23 316.07,-78.3 z"
         id="path20" /></clipPath><linearGradient
       x1="0"
       y1="0"
       x2="1"
       y2="0"
       gradientUnits="userSpaceOnUse"
       gradientTransform="matrix(-1127.75,0,0,-1127.75,2853.23,2959.35)"
       spreadMethod="pad"
       id="linearGradient28"><stop
         style="stop-opacity:1;stop-color:#d8f1e3"
         offset="0"
         id="stop24" /><stop
         style="stop-opacity:1;stop-color:#b5e6ea"
         offset="1"
         id="stop26" /></linearGradient><clipPath
       clipPathUnits="userSpaceOnUse"
       id="clipPath38"><path
         d="M 4597.3,2064.73 H 2893.74 c 0,0 -92.39,116.87 0,195.52 50.98,43.4 111.18,38.91 154.91,26.16 28.5,-8.32 56.92,10.91 63.17,39.92 10.36,48.05 42.28,110.93 133.98,148.08 90.22,36.55 147.29,-19.26 180.3,-76.61 10.86,-18.86 39.79,-16.03 46.34,4.72 28.6,90.54 128.26,210.55 455.72,210.55 416.5,0 370.22,-221.41 333,-313.44 -6.47,-15.98 7.21,-32.54 24.07,-28.94 64.24,13.74 183.49,31.54 236.97,-10.44 75.1,-58.96 75.1,-195.52 75.1,-195.52 z"
         id="path36" /></clipPath><linearGradient
       x1="0"
       y1="0"
       x2="1"
       y2="0"
       gradientUnits="userSpaceOnUse"
       gradientTransform="matrix(-1744.63,0,0,-1744.63,4597.3,2338.9)"
       spreadMethod="pad"
       id="linearGradient44"><stop
         style="stop-opacity:1;stop-color:#d8f1e3"
         offset="0"
         id="stop40" /><stop
         style="stop-opacity:1;stop-color:#b5e6ea"
         offset="1"
         id="stop42" /></linearGradient><clipPath
       clipPathUnits="userSpaceOnUse"
       id="clipPath82"><path
         d="m 5019.38,3023.02 32.67,65.79 -327.28,6.09 z"
         id="path80" /></clipPath><linearGradient
       x1="0"
       y1="0"
       x2="1"
       y2="0"
       gradientUnits="userSpaceOnUse"
       gradientTransform="matrix(321.252,-47.178,-47.178,-321.252,4725.72,3101.44)"
       spreadMethod="pad"
       id="linearGradient90"><stop
         style="stop-opacity:1;stop-color:#edf9f4"
         offset="0"
         id="stop84" /><stop
         style="stop-opacity:1;stop-color:#edf9f4"
         offset="0.00000063"
         id="stop86" /><stop
         style="stop-opacity:1;stop-color:#b5e6ea"
         offset="1"
         id="stop88" /></linearGradient><clipPath
       clipPathUnits="userSpaceOnUse"
       id="clipPath100"><path
         d="m 4724.77,3094.9 247.07,-119.69 -53.26,-93.92 z"
         id="path98" /></clipPath><linearGradient
       x1="0"
       y1="0"
       x2="1"
       y2="0"
       gradientUnits="userSpaceOnUse"
       gradientTransform="matrix(259.062,-38.045,-38.045,-259.062,4711.45,3004.28)"
       spreadMethod="pad"
       id="linearGradient108"><stop
         style="stop-opacity:1;stop-color:#edf9f4"
         offset="0"
         id="stop102" /><stop
         style="stop-opacity:1;stop-color:#edf9f4"
         offset="0.00000063"
         id="stop104" /><stop
         style="stop-opacity:1;stop-color:#b5e6ea"
         offset="1"
         id="stop106" /></linearGradient><clipPath
       clipPathUnits="userSpaceOnUse"
       id="clipPath124"><path
         d="m 1993.55,3209.87 -211.71,116.84 -108.08,21.63 -81.68,-12.01 z"
         id="path122" /></clipPath><linearGradient
       x1="0"
       y1="0"
       x2="1"
       y2="0"
       gradientUnits="userSpaceOnUse"
       gradientTransform="matrix(401.466,0,0,-401.466,1592.09,3279.1)"
       spreadMethod="pad"
       id="linearGradient132"><stop
         style="stop-opacity:1;stop-color:#edf9f4"
         offset="0"
         id="stop126" /><stop
         style="stop-opacity:1;stop-color:#edf9f4"
         offset="0.00000063"
         id="stop128" /><stop
         style="stop-opacity:1;stop-color:#b5e6ea"
         offset="1"
         id="stop130" /></linearGradient><clipPath
       clipPathUnits="userSpaceOnUse"
       id="clipPath146"><path
         d="m 1510.1,3279.83 56.56,45.91 424.32,-115.21 -365.26,10.86 z"
         id="path144" /></clipPath><linearGradient
       x1="0"
       y1="0"
       x2="1"
       y2="0"
       gradientUnits="userSpaceOnUse"
       gradientTransform="matrix(480.882,0,0,-480.882,1510.1,3268.13)"
       spreadMethod="pad"
       id="linearGradient154"><stop
         style="stop-opacity:1;stop-color:#edf9f4"
         offset="0"
         id="stop148" /><stop
         style="stop-opacity:1;stop-color:#edf9f4"
         offset="0.00000063"
         id="stop150" /><stop
         style="stop-opacity:1;stop-color:#b5e6ea"
         offset="1"
         id="stop152" /></linearGradient><clipPath
       clipPathUnits="userSpaceOnUse"
       id="clipPath262"><path
         d="m 2000.83,715.32 h -634.86 v 754.67 h 634.86 z"
         id="path260" /></clipPath><linearGradient
       x1="0"
       y1="0"
       x2="1"
       y2="0"
       gradientUnits="userSpaceOnUse"
       gradientTransform="matrix(0,752.711,752.711,0,1683.4,756.21)"
       spreadMethod="pad"
       id="linearGradient268"><stop
         style="stop-opacity:1;stop-color:#d8f1e3"
         offset="0"
         id="stop264" /><stop
         style="stop-opacity:1;stop-color:#b5e6ea"
         offset="1"
         id="stop266" /></linearGradient><clipPath
       clipPathUnits="userSpaceOnUse"
       id="clipPath278"><path
         d="M 4338.52,715.32 H 2862.45 v 754.67 h 1476.07 z"
         id="path276" /></clipPath><linearGradient
       x1="0"
       y1="0"
       x2="1"
       y2="0"
       gradientUnits="userSpaceOnUse"
       gradientTransform="matrix(0,752.711,752.711,0,3600.48,756.21)"
       spreadMethod="pad"
       id="linearGradient284"><stop
         style="stop-opacity:1;stop-color:#d8f1e3"
         offset="0"
         id="stop280" /><stop
         style="stop-opacity:1;stop-color:#b5e6ea"
         offset="1"
         id="stop282" /></linearGradient><clipPath
       clipPathUnits="userSpaceOnUse"
       id="clipPath298"><path
         d="m 1967.49,1694.4 c -7.6,278.82 -134.41,500.63 -289.75,500.63 -155.34,0 -282.15,-221.81 -289.75,-500.63 z"
         id="path296" /></clipPath><linearGradient
       x1="0"
       y1="0"
       x2="1"
       y2="0"
       gradientUnits="userSpaceOnUse"
       gradientTransform="matrix(0,1051.51,1051.51,0,1677.74,1197.91)"
       spreadMethod="pad"
       id="linearGradient304"><stop
         style="stop-opacity:1;stop-color:#d8f1e3"
         offset="0"
         id="stop300" /><stop
         style="stop-opacity:1;stop-color:#b5e6ea"
         offset="1"
         id="stop302" /></linearGradient><clipPath
       clipPathUnits="userSpaceOnUse"
       id="clipPath344"><path
         d="m 1161.84,1124.96 c 0,0 45.52,-106.16 57.08,-106.16 9.24,0 -3.47,86.69 -3.47,86.69 h 38.12 c 0,0 47.95,-148.58 9.82,-175.72 -38.12,-27.149 -121.88,76.82 -121.88,76.82 z"
         id="path342" /></clipPath><linearGradient
       x1="0"
       y1="0"
       x2="1"
       y2="0"
       gradientUnits="userSpaceOnUse"
       gradientTransform="matrix(136.609,0,0,-136.609,1141.51,1025.1)"
       spreadMethod="pad"
       id="linearGradient350"><stop
         style="stop-opacity:1;stop-color:#d8f1e3"
         offset="0"
         id="stop346" /><stop
         style="stop-opacity:1;stop-color:#b5e6ea"
         offset="1"
         id="stop348" /></linearGradient><clipPath
       clipPathUnits="userSpaceOnUse"
       id="clipPath362"><path
         d="m 1124.16,1147.14 c 14.87,-0.14 29.06,-7.51 36.64,-20.31 2.65,-4.48 4.49,-9.43 4.49,-14.56 0,-18.49 0,-245.372 0,-245.372 H 1025.98 V 1096.3 c 0,0 2.85,51 52.71,51 21.23,0 35.77,-0.07 45.47,-0.16 z"
         id="path360" /></clipPath><linearGradient
       x1="0"
       y1="0"
       x2="1"
       y2="0"
       gradientUnits="userSpaceOnUse"
       gradientTransform="matrix(139.308,0,0,-139.308,1025.98,1007.11)"
       spreadMethod="pad"
       id="linearGradient368"><stop
         style="stop-opacity:1;stop-color:#d8f1e3"
         offset="0"
         id="stop364" /><stop
         style="stop-opacity:1;stop-color:#b5e6ea"
         offset="1"
         id="stop366" /></linearGradient><clipPath
       clipPathUnits="userSpaceOnUse"
       id="clipPath392"><path
         d="m 1040.81,1131.95 c 0,0 -78.759,-87.49 -78.759,-139.93 0,-52.438 63.929,-144.86 63.929,-144.86 l 31.58,9.238 c 0,0 -28.5,114.372 -28.5,144.802 0,30.42 58.54,75.03 58.54,75.03"
         id="path390" /></clipPath><linearGradient
       x1="0"
       y1="0"
       x2="1"
       y2="0"
       gradientUnits="userSpaceOnUse"
       gradientTransform="matrix(125.544,0,0,-125.544,962.052,989.56)"
       spreadMethod="pad"
       id="linearGradient398"><stop
         style="stop-opacity:1;stop-color:#d8f1e3"
         offset="0"
         id="stop394" /><stop
         style="stop-opacity:1;stop-color:#b5e6ea"
         offset="1"
         id="stop396" /></linearGradient><clipPath
       clipPathUnits="userSpaceOnUse"
       id="clipPath472"><path
         d="m 1828.69,950.941 c 0,-2.793 -2.26,-5.043 -5.04,-5.043 -2.78,0 -5.04,2.25 -5.04,5.043 0,2.778 2.26,5.039 5.04,5.039 2.78,0 5.04,-2.261 5.04,-5.039 z"
         id="path470" /></clipPath><linearGradient
       x1="0"
       y1="0"
       x2="1"
       y2="0"
       gradientUnits="userSpaceOnUse"
       gradientTransform="matrix(-10.073,0,0,-10.073,1828.68,950.94)"
       spreadMethod="pad"
       id="linearGradient478"><stop
         style="stop-opacity:1;stop-color:#d8f1e3"
         offset="0"
         id="stop474" /><stop
         style="stop-opacity:1;stop-color:#b5e6ea"
         offset="1"
         id="stop476" /></linearGradient><clipPath
       clipPathUnits="userSpaceOnUse"
       id="clipPath534"><path
         d="m 2413.96,952.961 c 7.55,27.418 28.22,81.829 28.42,82.379 l 3.87,-1.46 c -0.21,-0.55 -20.8,-54.79 -28.3,-82.021 -1.89,-6.89 0.78,-14.097 6.65,-17.918 17.31,-11.281 35.13,-17.832 46.68,-20.859 0.03,-2.031 0,-2.812 0,-4.184 -12.09,2.832 -29.4,8.832 -48.94,21.582 -7.38,4.801 -10.75,13.852 -8.38,22.481 z"
         id="path532" /></clipPath><linearGradient
       x1="0"
       y1="0"
       x2="1"
       y2="0"
       gradientUnits="userSpaceOnUse"
       gradientTransform="matrix(-58.0803,0,0,-58.0803,2471.29,972.12)"
       spreadMethod="pad"
       id="linearGradient540"><stop
         style="stop-opacity:1;stop-color:#d8f1e3"
         offset="0"
         id="stop536" /><stop
         style="stop-opacity:1;stop-color:#b5e6ea"
         offset="1"
         id="stop538" /></linearGradient><clipPath
       clipPathUnits="userSpaceOnUse"
       id="clipPath550"><path
         d="m 2332.72,941.039 c 16.4,44.891 30.25,77.081 30.39,77.401 l 3.79,-1.63 c -0.14,-0.33 -13.94,-32.419 -30.29,-77.189 -6.5,-17.801 0.18,-37.449 15.54,-45.723 53.17,-28.628 126.1,-25.5 139.39,-24.668 l 2.14,-0.14 0.35,-3.828 c -0.26,-0.024 -8.24,-0.68 -20.91,-0.68 -28.75,0 -81.61,3.438 -122.93,25.68 -17.15,9.226 -24.66,31.058 -17.47,50.777 z"
         id="path548" /></clipPath><linearGradient
       x1="0"
       y1="0"
       x2="1"
       y2="0"
       gradientUnits="userSpaceOnUse"
       gradientTransform="matrix(-164.027,0,0,-164.027,2494.03,941.51)"
       spreadMethod="pad"
       id="linearGradient556"><stop
         style="stop-opacity:1;stop-color:#d8f1e3"
         offset="0"
         id="stop552" /><stop
         style="stop-opacity:1;stop-color:#b5e6ea"
         offset="1"
         id="stop554" /></linearGradient></defs><sodipodi:namedview
     pagecolor="#ffffff"
     bordercolor="#666666"
     borderopacity="1"
     objecttolerance="10"
     gridtolerance="10"
     guidetolerance="10"
     inkscape:pageopacity="0"
     inkscape:pageshadow="2"
     inkscape:window-width="640"
     inkscape:window-height="480"
     id="namedview4" /><g
     id="g10"
     inkscape:groupmode="layer"
     inkscape:label="ink_ext_XXXXXX"
     transform="matrix(1.3333333,0,0,-1.3333333,0,497.33333)"><g
       id="g12"
       transform="scale(0.1)"><path
         d="M 5545.06,0 H 0 V 3730 H 5545.06 V 0"
         style="fill:#ffffff;fill-opacity:1;fill-rule:nonzero;stroke:none"
         id="path14" /><g
         id="g16"><g
           id="g18"
           clip-path="url(#clipPath22)"><path
             d="m 2850.42,2935.86 c 41.13,-178.75 -380.39,-201.72 -554.08,-203.67 -48.16,-0.53 -96.06,4.03 -143.26,13.61 -146.88,29.8 -468.4,108.02 -423.3,214.38 58.17,137.21 232.94,41.54 232.94,41.54 0,0 -21.94,103.6 275.44,172.02 297.38,68.42 296.19,-159.58 296.19,-159.58 0,0 264.41,146.23 316.07,-78.3"
             style="fill:url(#linearGradient28);fill-opacity:1;fill-rule:nonzero;stroke:none"
             id="path30" /></g></g><g
         id="g32"><g
           id="g34"
           clip-path="url(#clipPath38)"><path
             d="M 4597.3,2064.73 H 2893.74 c 0,0 -92.39,116.87 0,195.52 50.98,43.4 111.18,38.91 154.91,26.16 28.5,-8.32 56.92,10.91 63.17,39.92 10.36,48.05 42.28,110.93 133.98,148.08 90.22,36.55 147.29,-19.26 180.3,-76.61 10.86,-18.86 39.79,-16.03 46.34,4.72 28.6,90.54 128.26,210.55 455.72,210.55 416.5,0 370.22,-221.41 333,-313.44 -6.47,-15.98 7.21,-32.54 24.07,-28.94 64.24,13.74 183.49,31.54 236.97,-10.44 75.1,-58.96 75.1,-195.52 75.1,-195.52"
             style="fill:url(#linearGradient44);fill-opacity:1;fill-rule:nonzero;stroke:none"
             id="path46" /></g></g><path
         d="m 1370.03,1337.63 c 0,0 -20.96,611.17 -441.815,764.87 -507.512,-580.29 64.551,-1077.88 64.551,-1077.88 l 377.264,313.01"
         style="fill:#338d8c;fill-opacity:1;fill-rule:nonzero;stroke:none"
         id="path48" /><path
         d="m 928.215,2102.5 c -1.77,-2.02 -3.473,-4.03 -5.211,-6.05 l 203.826,-691.13 -408.471,187.36 c 0.082,-5.01 0.231,-9.99 0.426,-14.96 l 413.075,-189.47 58.81,-199.43 11.24,9.32 -117.24,397.56 v 0 l 166.83,200.05 c -2.19,4.33 -4.4,8.65 -6.68,12.96 L 1080.1,1611.19 936.105,2099.44 c -2.636,1.01 -5.222,2.09 -7.886,3.06 h -0.004"
         style="fill:#ffffff;fill-opacity:1;fill-rule:nonzero;stroke:none"
         id="path50" /><path
         d="m 1175.16,1409.49 c 0,0 -397.215,462.73 -816.57,371.73 C 207.844,1287.69 732.73,1035.9 732.73,1035.9 l 532.54,-28.3 -90.11,401.89"
         style="fill:#fccd37;fill-opacity:1;fill-rule:nonzero;stroke:none"
         id="path52" /><path
         d="m 825.813,1690.4 -34.118,-268.26 -423.144,361.04 c -3.321,-0.65 -6.637,-1.24 -9.961,-1.96 -0.594,-1.94 -1.086,-3.85 -1.656,-5.78 l 226.629,-193.37 -248.68,-35.68 c 0.273,-2.38 0.621,-4.71 0.922,-7.06 l 0.898,-6.24 260.465,37.37 377.676,-322.26 -434.453,-76.54 c 4.195,-3.88 8.382,-7.7 12.558,-11.42 l 435.137,76.66 268.184,-228.82 9,-0.48 -2.9,12.93 -458.464,391.19 34.547,271.6 c -4.183,2.38 -8.402,4.74 -12.64,7.08"
         style="fill:#ffffff;fill-opacity:1;fill-rule:nonzero;stroke:none"
         id="path54" /><path
         d="m 1123.33,1122.33 c 0,0 -493.951,122.93 -690.975,-156.432 C 705.395,323.441 1541.89,625.391 1541.89,625.391 l -418.56,496.939"
         style="fill:#183c5e;fill-opacity:1;fill-rule:nonzero;stroke:none"
         id="path56" /><path
         d="m 432.359,965.891 c 1.047,-2.469 2.137,-4.891 3.207,-7.34 L 1115.34,844.039 835.676,593.871 c 5,-1.582 10.012,-3.101 15.039,-4.562 l 281.575,251.871 265.51,-44.719 -13.37,15.871 -516.934,87.078 -166.629,231.58 c -4.722,-1.06 -9.441,-2.17 -14.148,-3.33 L 848.668,902.59 436.824,971.961 c -1.48,-2.02 -3.008,-3.981 -4.461,-6.051 l -0.004,-0.019"
         style="fill:#196265;fill-opacity:1;fill-rule:nonzero;stroke:none"
         id="path58" /><path
         d="m 3964.58,1670.87 c 0,0 -175.53,750.21 285.76,1075.57 808.1,-538.83 276.03,-1332.15 276.03,-1332.15 l -561.79,256.58"
         style="fill:#65cbc2;fill-opacity:1;fill-rule:nonzero;stroke:none"
         id="path60" /><path
         d="m 4250.34,2746.44 c 2.81,-1.89 5.55,-3.77 8.32,-5.65 l -20.55,-907.59 435.14,362.22 c 1.55,-6.12 3.01,-12.23 4.41,-18.34 l -440.06,-366.3 -5.94,-261.89 -16.73,7.64 11.83,522.08 v -0.01 l -268.71,188.44 c 1.25,5.98 2.52,11.96 3.86,17.95 l 265.32,-186.04 14.52,641.17 c 2.87,2.1 5.66,4.25 8.58,6.32 h 0.01"
         style="fill:#ffffff;fill-opacity:1;fill-rule:nonzero;stroke:none"
         id="path62" /><path
         d="m 4177.95,1822.37 c 0,0 330.89,693.43 870.84,720.69 345.67,-550.65 -209.87,-1029.52 -209.87,-1029.52 l -638.37,-209.58 -22.6,518.41"
         style="fill:#338d8c;fill-opacity:1;fill-rule:nonzero;stroke:none"
         id="path64" /><path
         d="m 4510.43,2278.92 129.74,-315.04 395.86,578.29 c 4.25,0.3 8.48,0.67 12.76,0.89 1.36,-2.17 2.58,-4.32 3.92,-6.49 l -212.03,-309.72 314.18,38.4 c 0.45,-2.97 0.79,-5.93 1.2,-8.89 l 0.96,-7.88 -329.06,-40.22 -353.34,-516.15 553.56,49.8 c -3.82,-6.1 -7.66,-12.12 -11.52,-18.01 l -554.42,-49.89 -250.9,-366.51 -10.79,-3.54 -0.73,16.67 428.91,626.56 -131.35,318.96 c 4.31,4.27 8.66,8.53 13.05,12.77"
         style="fill:#196265;fill-opacity:1;fill-rule:nonzero;stroke:none"
         id="path66" /><path
         d="m 4335.44,1490.19 c 0,0 560.3,311.98 891.82,37.02 C 5106.49,656.039 3989.84,748.129 3989.84,748.129 l 345.6,742.061"
         style="fill:#183c5e;fill-opacity:1;fill-rule:nonzero;stroke:none"
         id="path68" /><path
         d="m 5227.25,1527.2 c -0.46,-3.36 -0.99,-6.66 -1.49,-9.99 l -789.07,-362.86 422.42,-212.268 c -5.57,-3.562 -11.17,-7.051 -16.8,-10.492 l -425.3,213.71 -308.2,-141.73 11.04,23.72 600.05,275.93 126.49,336.44 c 6.09,0.27 12.19,0.47 18.3,0.6 l -122.93,-326.99 478.05,219.84 c 2.48,-1.97 4.98,-3.86 7.43,-5.89 l 0.01,-0.02"
         style="fill:#196265;fill-opacity:1;fill-rule:nonzero;stroke:none"
         id="path70" /><path
         d="m 5019.38,3023.02 25.64,-76.21 -73.18,28.4 -247.07,119.69 294.61,-71.88"
         style="fill:#a2debd;fill-opacity:1;fill-rule:nonzero;stroke:none"
         id="path72" /><path
         d="m 5045.02,2946.81 -127.47,26.89 33.88,11.4 z"
         style="fill:#65cbc2;fill-opacity:1;fill-rule:nonzero;stroke:none"
         id="path74" /><g
         id="g76"><g
           id="g78"
           clip-path="url(#clipPath82)"><path
             d="m 5019.38,3023.02 32.67,65.79 -327.28,6.09 z"
             style="fill:url(#linearGradient90);fill-opacity:1;fill-rule:nonzero;stroke:none"
             id="path92" /></g></g><g
         id="g94"><g
           id="g96"
           clip-path="url(#clipPath100)"><path
             d="m 4724.77,3094.9 247.07,-119.69 -53.26,-93.92 z"
             style="fill:url(#linearGradient108);fill-opacity:1;fill-rule:nonzero;stroke:none"
             id="path110" /></g></g><path
         d="m 5006.13,2879.61 c 0.74,0.25 1.42,0.62 2.03,1.15 2.57,2.2 2.87,6.06 0.67,8.63 -6.95,8.09 -14.6,15.53 -22.77,22.09 -2.63,2.13 -6.48,1.71 -8.6,-0.94 -2.11,-2.63 -1.69,-6.48 0.94,-8.6 7.59,-6.08 14.7,-12.99 21.14,-20.52 1.67,-1.94 4.3,-2.58 6.59,-1.81"
         style="fill:#65cbc2;fill-opacity:1;fill-rule:nonzero;stroke:none"
         id="path112" /><path
         d="m 4823.9,2742.89 c -15.81,10.31 -36.36,15.33 -54.95,13.44 -3.36,-0.35 -6.37,2.1 -6.71,5.46 -0.35,3.36 2.12,6.35 5.47,6.71 21.61,2.21 44.52,-3.4 62.88,-15.37 2.83,-1.84 3.62,-5.63 1.77,-8.47 -0.77,-1.19 -1.9,-2.02 -3.16,-2.45 -1.71,-0.57 -3.67,-0.38 -5.3,0.68 z m -111.31,-54.26 c -3.36,-0.33 -6.36,2.13 -6.69,5.49 -1.78,17.83 2.39,34.26 12.04,47.52 3.51,4.81 7.69,9.08 12.42,12.71 2.68,2.06 6.52,1.54 8.58,-1.14 2.05,-2.68 1.54,-6.51 -1.14,-8.58 -3.81,-2.91 -7.16,-6.34 -9.98,-10.19 -7.96,-10.95 -11.24,-24.11 -9.75,-39.12 0.28,-2.89 -1.49,-5.51 -4.13,-6.39 -0.43,-0.15 -0.88,-0.25 -1.35,-0.3 z m 334.21,102.25 c -3.32,-0.63 -6.52,1.56 -7.14,4.88 -1.67,8.96 -3.98,17.84 -6.87,26.4 -3.47,10.36 -7.86,20.4 -13,29.82 -1.61,2.96 -0.51,6.68 2.45,8.29 2.98,1.65 6.69,0.53 8.3,-2.44 5.48,-10.04 10.13,-20.72 13.85,-31.77 3.06,-9.1 5.52,-18.54 7.3,-28.05 0.57,-3.03 -1.21,-5.96 -4.06,-6.92 -0.27,-0.09 -0.54,-0.16 -0.83,-0.21 z m -166.41,-123.31 c -10.04,22.09 -19.76,38.5 -30.6,51.61 -2.16,2.61 -1.79,6.46 0.81,8.61 2.6,2.14 6.46,1.79 8.61,-0.81 11.55,-13.97 21.82,-31.25 32.32,-54.35 1.4,-3.07 0.04,-6.7 -3.03,-8.1 -0.2,-0.09 -0.39,-0.16 -0.59,-0.23 -2.94,-0.98 -6.2,0.38 -7.52,3.27 z m -120.49,-58.88 c -4.54,3.23 -8.91,6.7 -13.01,10.31 -11.89,10.47 -22.06,23.51 -29.4,37.71 -1.55,3 -0.38,6.69 2.63,8.24 2.98,1.55 6.69,0.38 8.23,-2.62 6.66,-12.86 15.87,-24.67 26.63,-34.15 3.79,-3.34 7.83,-6.54 12.01,-9.53 2.76,-1.96 3.4,-5.77 1.44,-8.53 -0.78,-1.09 -1.85,-1.85 -3.03,-2.24 -1.8,-0.6 -3.85,-0.37 -5.5,0.81 z m 277.8,84.74 c -3.21,1.06 -4.95,4.52 -3.89,7.73 6.16,18.63 9.26,38.43 9.21,58.85 -0.01,3.37 2.72,6.13 6.1,6.13 3.38,0.01 6.12,-2.72 6.12,-6.1 0.06,-21.74 -3.25,-42.84 -9.81,-62.72 -0.64,-1.9 -2.11,-3.29 -3.87,-3.88 -1.21,-0.41 -2.56,-0.44 -3.86,-0.01 z m -182.29,-117.4 c -21.79,1.32 -42.64,6.06 -61.95,14.1 -3.12,1.3 -4.59,4.87 -3.3,7.99 1.3,3.13 4.89,4.6 7.99,3.3 18.06,-7.51 37.57,-11.94 58,-13.18 3.38,-0.21 5.94,-3.11 5.74,-6.48 -0.16,-2.56 -1.87,-4.66 -4.16,-5.43 -0.72,-0.24 -1.51,-0.35 -2.32,-0.3 z m 123.24,39.94 c -2.05,2.68 -1.54,6.52 1.14,8.57 9.85,7.53 18.7,16.09 26.29,25.46 4.75,5.84 9.12,12.12 13,18.67 1.72,2.9 5.47,3.87 8.38,2.14 2.91,-1.72 3.87,-5.48 2.14,-8.38 -4.18,-7.06 -8.9,-13.84 -14.01,-20.14 -8.22,-10.11 -17.76,-19.35 -28.36,-27.47 -0.55,-0.42 -1.15,-0.73 -1.77,-0.94 -2.41,-0.81 -5.18,-0.05 -6.81,2.09 z m -55.28,-43.9 c -3.21,-1.03 -6.65,0.73 -7.7,3.95 -0.52,1.63 -1.05,3.27 -1.6,4.9 -6.76,-1.56 -13.61,-2.79 -20.52,-3.65 -3.34,-0.42 -6.41,1.95 -6.83,5.3 -0.43,3.35 1.89,6.38 5.3,6.84 6.1,0.76 12.14,1.82 18.11,3.15 -4.52,12.97 -9.6,26.49 -15.45,41.11 -1.25,3.13 0.27,6.69 3.41,7.94 3.09,1.25 6.7,-0.26 7.95,-3.41 6.06,-15.14 11.31,-29.14 15.97,-42.58 9.39,2.75 18.56,6.24 27.27,10.36 3.06,1.49 6.7,0.14 8.14,-2.9 1.46,-3.06 0.15,-6.7 -2.9,-8.15 -9.15,-4.33 -18.76,-7.99 -28.59,-10.9 0.47,-1.42 0.94,-2.84 1.39,-4.27 1.02,-3.19 -0.7,-6.6 -3.87,-7.67 -0.02,-0.01 -0.05,-0.01 -0.08,-0.02 z m 20.58,-96.55 c -3.36,-0.38 -6.4,2.03 -6.77,5.38 -2.16,18.95 -5.95,39.09 -11.28,59.87 -0.84,3.27 1.26,6.68 4.4,7.44 3.27,0.84 6.61,-1.13 7.44,-4.4 5.48,-21.32 9.37,-42.02 11.59,-61.52 0.33,-2.92 -1.45,-5.59 -4.12,-6.49 -0.41,-0.13 -0.83,-0.22 -1.26,-0.28 z m -5.85,-98.23 c -3.31,0.74 -5.39,4 -4.67,7.3 l 0.57,2.7 c 3.69,18.25 5.5,37.54 5.38,57.31 -0.01,3.37 2.71,6.16 6.09,6.15 3.38,0.02 6.13,-2.7 6.15,-6.09 0.12,-20.59 -1.79,-40.71 -5.62,-59.8 l -0.62,-2.91 c -0.48,-2.17 -2.06,-3.82 -4.03,-4.47 -1.02,-0.35 -2.14,-0.42 -3.25,-0.19 z m -44.35,-87.49 c -2.67,2.07 -3.13,5.91 -1.05,8.58 12.34,15.82 22.45,33.28 30.03,51.86 1.28,3.12 4.86,4.62 7.97,3.35 3.14,-1.28 4.64,-4.86 3.36,-7.98 -8.01,-19.63 -18.69,-38.04 -31.73,-54.75 -0.76,-0.99 -1.76,-1.67 -2.86,-2.04 -1.88,-0.63 -4.04,-0.33 -5.72,0.98 z m -78.93,-57.72 c -1.28,3.12 0.23,6.69 3.35,7.97 17.72,7.23 34.55,17.99 50.04,31.96 2.51,2.22 6.38,2.07 8.65,-0.45 2.25,-2.52 2.06,-6.38 -0.44,-8.64 -16.56,-14.92 -34.59,-26.44 -53.63,-34.2 -0.1,-0.05 -0.23,-0.09 -0.36,-0.13 -3.04,-1.02 -6.39,0.48 -7.61,3.49"
         style="fill:#65cbc2;fill-opacity:1;fill-rule:nonzero;stroke:none"
         id="path114" /><path
         d="m 4786.12,2218.81 c 2.72,0.92 4.5,3.66 4.1,6.61 -0.44,3.35 -3.51,5.69 -6.86,5.26 -9.68,-1.29 -19.48,-1.5 -29.15,-0.62 -3.37,0.32 -6.35,-2.17 -6.65,-5.53 -0.3,-3.36 2.17,-6.34 5.54,-6.64 10.57,-0.97 21.29,-0.75 31.87,0.65 0.39,0.06 0.78,0.15 1.15,0.27"
         style="fill:#65cbc2;fill-opacity:1;fill-rule:nonzero;stroke:none"
         id="path116" /><g
         id="g118"><g
           id="g120"
           clip-path="url(#clipPath124)"><path
             d="m 1993.55,3209.87 -211.71,116.84 -108.08,21.63 -81.68,-12.01 401.47,-126.46"
             style="fill:url(#linearGradient132);fill-opacity:1;fill-rule:nonzero;stroke:none"
             id="path134" /></g></g><path
         d="m 1993.55,3209.87 -396.44,101.91 -5.03,24.55"
         style="fill:#a2debd;fill-opacity:1;fill-rule:nonzero;stroke:none"
         id="path136" /><path
         d="m 1585.8,3243.76 0.5,-0.83 16.64,-61.54 389.61,28.45 -406.75,33.92"
         style="fill:#65cbc2;fill-opacity:1;fill-rule:nonzero;stroke:none"
         id="path138" /><g
         id="g140"><g
           id="g142"
           clip-path="url(#clipPath146)"><path
             d="m 1510.1,3279.83 56.56,45.91 424.32,-115.21 -365.26,10.86 -115.62,58.44"
             style="fill:url(#linearGradient154);fill-opacity:1;fill-rule:nonzero;stroke:none"
             id="path156" /></g></g><path
         d="m 618.355,2494.37 c 12.954,4.57 25.79,10.14 38.145,16.56 2.832,1.46 6.281,0.35 7.77,-2.46 1.46,-2.83 0.363,-6.3 -2.469,-7.77 -12.813,-6.66 -26.156,-12.45 -39.617,-17.19 -4.879,-1.72 -9.778,-3.31 -14.707,-4.79 -1.809,-0.55 -3.672,-0.17 -5.082,0.88 -0.969,0.72 -1.727,1.74 -2.086,2.97 -0.922,3.05 0.808,6.26 3.851,7.17 4.762,1.43 9.492,2.98 14.195,4.63"
         style="fill:#65cbc2;fill-opacity:1;fill-rule:nonzero;stroke:none"
         id="path158" /><path
         d="m 1394.25,3322.75 c 17.98,-2.3 36.69,-5.26 57.21,-9.05 3.12,-0.59 5.17,-3.58 4.61,-6.71 -0.58,-3.13 -3.58,-5.2 -6.7,-4.62 -20.31,3.76 -38.82,6.68 -56.58,8.95 -1.01,0.14 -1.93,0.52 -2.69,1.09 -1.62,1.2 -2.57,3.22 -2.29,5.36 0.41,3.16 3.29,5.39 6.44,4.98"
         style="fill:#65cbc2;fill-opacity:1;fill-rule:nonzero;stroke:none"
         id="path160" /><path
         d="m 1298.19,3318.34 c -1.4,1.04 -2.31,2.71 -2.33,4.59 -0.03,3.18 2.53,5.78 5.71,5.8 18.48,0.16 38.02,-0.6 58.07,-2.28 3.17,-0.27 5.54,-3.06 5.25,-6.22 -0.27,-3.18 -3.04,-5.53 -6.22,-5.27 -19.69,1.66 -38.87,2.42 -57,2.26 -1.3,-0.02 -2.5,0.4 -3.48,1.12"
         style="fill:#65cbc2;fill-opacity:1;fill-rule:nonzero;stroke:none"
         id="path162" /><path
         d="m 729.492,2563.81 c 2.278,2.23 5.914,2.26 8.141,-0.1 2.222,-2.28 2.187,-5.92 -0.11,-8.14 -13.953,-13.64 -29.246,-26.06 -45.453,-36.92 -2.066,-1.4 -4.734,-1.26 -6.632,0.15 -0.516,0.38 -0.981,0.85 -1.356,1.42 -1.769,2.64 -1.062,6.22 1.578,7.99 15.61,10.47 30.36,22.45 43.832,35.6"
         style="fill:#65cbc2;fill-opacity:1;fill-rule:nonzero;stroke:none"
         id="path164" /><path
         d="m 753.238,2580.67 c -2.472,2.03 -2.816,5.65 -0.8,8.11 3.25,3.98 6.414,8.03 9.472,12.15 8.188,11.06 15.633,22.7 22.129,34.61 1.52,2.79 5.016,3.83 7.809,2.3 2.715,-1.51 3.832,-5.03 2.3,-7.82 -6.742,-12.37 -14.48,-24.46 -22.98,-35.94 -3.172,-4.29 -6.445,-8.48 -9.828,-12.6 -1.953,-2.39 -5.422,-2.8 -7.883,-0.98 -0.074,0.06 -0.152,0.12 -0.219,0.17"
         style="fill:#65cbc2;fill-opacity:1;fill-rule:nonzero;stroke:none"
         id="path166" /><path
         d="m 801.715,2658.66 c -0.449,0.18 -0.863,0.42 -1.235,0.69 -2.074,1.53 -2.925,4.33 -1.894,6.82 6.836,16.62 12.566,34.25 17.523,53.91 0.778,3.09 3.911,4.96 6.993,4.18 3.058,-0.77 4.949,-3.91 4.168,-6.98 -5.079,-20.21 -10.985,-38.36 -18.04,-55.49 -1.203,-2.94 -4.578,-4.34 -7.515,-3.13"
         style="fill:#65cbc2;fill-opacity:1;fill-rule:nonzero;stroke:none"
         id="path168" /><path
         d="m 954.434,3150.1 c -4.801,-5.85 -9.454,-11.82 -13.95,-17.89 -6.793,-9.17 -13.277,-18.66 -19.273,-28.22 -1.691,-2.7 -5.242,-3.51 -7.945,-1.82 -0.121,0.08 -0.243,0.17 -0.371,0.26 -2.387,1.77 -3.051,5.11 -1.434,7.67 6.141,9.82 12.793,19.55 19.762,28.96 4.613,6.23 9.382,12.35 14.308,18.35 2.02,2.45 5.465,3.14 8.114,0.79 2.449,-2.01 2.804,-5.64 0.789,-8.1"
         style="fill:#65cbc2;fill-opacity:1;fill-rule:nonzero;stroke:none"
         id="path170" /><path
         d="m 904.238,3074.41 c -8.808,-16.86 -16.488,-34.34 -22.832,-51.96 -1.074,-3 -4.375,-4.55 -7.375,-3.47 -0.539,0.2 -1.027,0.46 -1.472,0.79 -1.989,1.47 -2.875,4.13 -1.989,6.57 6.508,18.12 14.403,36.09 23.453,53.42 1.473,2.81 4.954,3.91 7.77,2.44 2.781,-1.45 3.926,-4.95 2.445,-7.79"
         style="fill:#65cbc2;fill-opacity:1;fill-rule:nonzero;stroke:none"
         id="path172" /><path
         d="m 1018.75,3214.32 c -14.66,-12.03 -28.687,-25.04 -41.695,-38.68 -2.028,-2.12 -5.293,-2.36 -7.586,-0.66 -0.199,0.15 -0.383,0.3 -0.563,0.47 -2.301,2.19 -2.383,5.84 -0.191,8.14 13.336,13.98 27.711,27.31 42.715,39.63 2.46,2.02 6.1,1.69 8.12,-0.8 2.01,-2.46 1.65,-6.08 -0.8,-8.1"
         style="fill:#65cbc2;fill-opacity:1;fill-rule:nonzero;stroke:none"
         id="path174" /><path
         d="m 1124.94,3279.86 c -1.97,-0.87 -4.15,-0.55 -5.76,0.64 -0.78,0.57 -1.42,1.35 -1.84,2.3 -1.29,2.91 0.03,6.31 2.94,7.59 17.84,7.9 36.25,14.67 54.71,20.14 3.07,0.9 6.26,-0.85 7.15,-3.89 0.91,-3.05 -0.83,-6.25 -3.88,-7.15 -17.99,-5.33 -35.93,-11.94 -53.32,-19.63"
         style="fill:#65cbc2;fill-opacity:1;fill-rule:nonzero;stroke:none"
         id="path176" /><path
         d="m 841.148,2838 c -1.046,0.13 -1.988,0.51 -2.773,1.1 -1.594,1.17 -2.539,3.17 -2.289,5.28 l 0.812,7.25 c 1.907,16.69 3.817,33.41 6.024,50.05 0.414,3.16 3.312,5.37 6.465,4.96 3.152,-0.44 5.363,-3.31 4.953,-6.47 -2.195,-16.58 -4.09,-33.22 -5.988,-49.85 l -0.829,-7.24 c -0.359,-3.17 -3.21,-5.44 -6.375,-5.08"
         style="fill:#65cbc2;fill-opacity:1;fill-rule:nonzero;stroke:none"
         id="path178" /><path
         d="m 1045.9,3235 c -2.08,-1.47 -4.8,-1.36 -6.74,0.08 -0.48,0.35 -0.92,0.79 -1.29,1.31 -1.83,2.6 -1.21,6.19 1.39,8.02 15.89,11.21 32.57,21.51 49.58,30.63 2.82,1.49 6.29,0.42 7.8,-2.36 1.49,-2.8 0.45,-6.3 -2.36,-7.8 -16.6,-8.89 -32.88,-18.94 -48.38,-29.88"
         style="fill:#65cbc2;fill-opacity:1;fill-rule:nonzero;stroke:none"
         id="path180" /><path
         d="m 838.445,2815.11 c 3.18,-0.41 5.395,-3.26 4.993,-6.44 -2.829,-22.43 -5.61,-40.63 -8.731,-57.29 -0.59,-3.12 -3.598,-5.18 -6.734,-4.59 -0.883,0.17 -1.68,0.52 -2.36,1.03 -1.718,1.27 -2.648,3.45 -2.234,5.69 3.086,16.42 5.836,34.4 8.637,56.61 0.394,3.16 3.281,5.38 6.429,4.99"
         style="fill:#65cbc2;fill-opacity:1;fill-rule:nonzero;stroke:none"
         id="path182" /><path
         d="m 571.184,2481.63 c 3.109,0.61 6.14,-1.42 6.75,-4.54 0.621,-3.12 -1.411,-6.15 -4.539,-6.76 -17.95,-3.54 -36.852,-5.98 -57.77,-7.46 -1.43,-0.1 -2.77,0.32 -3.832,1.12 -1.305,0.96 -2.199,2.47 -2.32,4.22 -0.227,3.17 2.164,5.93 5.34,6.15 20.429,1.45 38.875,3.83 56.371,7.27"
         style="fill:#65cbc2;fill-opacity:1;fill-rule:nonzero;stroke:none"
         id="path184" /><path
         d="m 867.188,2996.97 c 3.054,-0.84 4.902,-3.98 4.066,-7.06 -4.539,-16.94 -8.426,-35.18 -11.875,-55.75 -0.524,-3.15 -3.5,-5.25 -6.625,-4.73 -0.934,0.15 -1.77,0.52 -2.481,1.04 -1.683,1.25 -2.632,3.38 -2.253,5.58 3.503,20.96 7.472,39.55 12.117,56.84 0.82,3.08 3.98,4.91 7.051,4.08"
         style="fill:#65cbc2;fill-opacity:1;fill-rule:nonzero;stroke:none"
         id="path186" /><path
         d="m 1246.48,3325.32 c 6.72,0.8 13.46,1.44 20.19,1.96 3.16,0.23 5.95,-2.14 6.18,-5.31 0.24,-3.17 -2.13,-5.95 -5.31,-6.18 -6.57,-0.5 -13.14,-1.13 -19.7,-1.91 -12.17,-1.44 -24.47,-3.47 -36.54,-6.02 -1.67,-0.36 -3.34,0.05 -4.62,1 -1.09,0.81 -1.89,2 -2.2,3.43 -0.66,3.12 1.33,6.18 4.45,6.83 12.4,2.63 25.04,4.71 37.55,6.2"
         style="fill:#65cbc2;fill-opacity:1;fill-rule:nonzero;stroke:none"
         id="path188" /><path
         d="M 4527.09,592.5 H 2633.63 v 1265 h 1893.46 v -1265"
         style="fill:#338d8c;fill-opacity:1;fill-rule:nonzero;stroke:none"
         id="path190" /><path
         d="m 2758.63,592.5 h -160 v 1265 h 160 v -1265"
         style="fill:#65cbc2;fill-opacity:1;fill-rule:nonzero;stroke:none"
         id="path192" /><path
         d="m 4588.63,592.5 h -160 v 1265 h 160 v -1265"
         style="fill:#65cbc2;fill-opacity:1;fill-rule:nonzero;stroke:none"
         id="path194" /><path
         d="m 2598.63,551.66 v 160 h 1990 v -160 h -1990"
         style="fill:#196265;fill-opacity:1;fill-rule:nonzero;stroke:none"
         id="path196" /><path
         d="m 4678.62,2117.5 h -2160 c 0,-260 -185,-505 -185,-505 h 1265 1265 c 0,0 -185,245 -185,505"
         style="fill:#fccd37;fill-opacity:1;fill-rule:nonzero;stroke:none"
         id="path198" /><path
         d="m 2339.14,1617.5 c 5.34,-53.72 50.65,-95.68 105.78,-95.68 55.12,0 100.44,41.96 105.78,95.68 h -211.56"
         style="fill:#f89b17;fill-opacity:1;fill-rule:nonzero;stroke:none"
         id="path200" /><path
         d="m 2546.45,1617.5 c 5.34,-53.72 50.65,-95.68 105.78,-95.68 55.13,0 100.44,41.96 105.78,95.68 h -211.56"
         style="fill:#f89b17;fill-opacity:1;fill-rule:nonzero;stroke:none"
         id="path202" /><path
         d="m 2758.47,1617.5 c 5.34,-53.72 50.65,-95.68 105.79,-95.68 55.12,0 100.44,41.96 105.77,95.68 h -211.56"
         style="fill:#f89b17;fill-opacity:1;fill-rule:nonzero;stroke:none"
         id="path204" /><path
         d="m 2965.78,1617.5 c 5.34,-53.72 50.66,-95.68 105.78,-95.68 55.13,0 100.44,41.96 105.78,95.68 h -211.56"
         style="fill:#f89b17;fill-opacity:1;fill-rule:nonzero;stroke:none"
         id="path206" /><path
         d="m 3179.87,1617.5 c 5.34,-53.72 50.66,-95.68 105.78,-95.68 55.13,0 100.44,41.96 105.79,95.68 h -211.57"
         style="fill:#f89b17;fill-opacity:1;fill-rule:nonzero;stroke:none"
         id="path208" /><path
         d="m 3387.19,1617.5 c 5.33,-53.72 50.65,-95.68 105.78,-95.68 55.13,0 100.44,41.96 105.77,95.68 h -211.55"
         style="fill:#f89b17;fill-opacity:1;fill-rule:nonzero;stroke:none"
         id="path210" /><path
         d="m 3599.21,1617.5 c 5.33,-53.72 50.65,-95.68 105.78,-95.68 55.13,0 100.44,41.96 105.77,95.68 h -211.55"
         style="fill:#f89b17;fill-opacity:1;fill-rule:nonzero;stroke:none"
         id="path212" /><path
         d="m 3806.52,1617.5 c 5.34,-53.72 50.65,-95.68 105.77,-95.68 55.13,0 100.45,41.96 105.79,95.68 h -211.56"
         style="fill:#f89b17;fill-opacity:1;fill-rule:nonzero;stroke:none"
         id="path214" /><path
         d="m 4025.42,1617.5 c 5.34,-53.72 50.65,-95.68 105.78,-95.68 55.13,0 100.44,41.96 105.78,95.68 h -211.56"
         style="fill:#f89b17;fill-opacity:1;fill-rule:nonzero;stroke:none"
         id="path216" /><path
         d="m 4232.73,1617.5 c 5.34,-53.72 50.66,-95.68 105.79,-95.68 55.12,0 100.44,41.96 105.77,95.68 h -211.56"
         style="fill:#f89b17;fill-opacity:1;fill-rule:nonzero;stroke:none"
         id="path218" /><path
         d="m 4444.76,1617.5 c 5.34,-53.72 50.65,-95.68 105.78,-95.68 55.12,0 100.44,41.96 105.78,95.68 h -211.56"
         style="fill:#f89b17;fill-opacity:1;fill-rule:nonzero;stroke:none"
         id="path220" /><path
         d="m 4652.07,1617.5 c 5.33,-53.72 50.64,-95.68 105.77,-95.68 55.13,0 100.45,41.96 105.78,95.68 h -211.55"
         style="fill:#f89b17;fill-opacity:1;fill-rule:nonzero;stroke:none"
         id="path222" /><path
         d="M 2223.69,591.148 H 1178.11 V 2647.83 H 2223.69 V 591.148"
         style="fill:#338d8c;fill-opacity:1;fill-rule:nonzero;stroke:none"
         id="path224" /><path
         d="M 1303.11,699.781 V 2647.83 h -160 V 699.781 h 160"
         style="fill:#65cbc2;fill-opacity:1;fill-rule:nonzero;stroke:none"
         id="path226" /><path
         d="M 2223.69,699.781 V 2647.83 h -160 V 699.781 h 160"
         style="fill:#65cbc2;fill-opacity:1;fill-rule:nonzero;stroke:none"
         id="path228" /><path
         d="M 2223.69,710.32 H 1143.11 v -160 h 1080.58 v 160"
         style="fill:#196265;fill-opacity:1;fill-rule:nonzero;stroke:none"
         id="path230" /><path
         d="m 1768.35,2959 h -748.01 c 0,-260.01 -184.996,-505.01 -184.996,-505.01 H 1768.35 V 2959"
         style="fill:#fccd37;fill-opacity:1;fill-rule:nonzero;stroke:none"
         id="path232" /><path
         d="m 840.859,2459 c 5.336,-53.72 50.649,-95.68 105.778,-95.68 55.133,0 100.443,41.96 105.783,95.68 H 840.859"
         style="fill:#f89b17;fill-opacity:1;fill-rule:nonzero;stroke:none"
         id="path234" /><path
         d="m 1048.17,2459 c 5.34,-53.72 50.65,-95.68 105.78,-95.68 55.13,0 100.44,41.96 105.78,95.68 h -211.56"
         style="fill:#f89b17;fill-opacity:1;fill-rule:nonzero;stroke:none"
         id="path236" /><path
         d="m 1260.2,2459 c 5.33,-53.72 50.64,-95.68 105.77,-95.68 55.13,0 100.45,41.96 105.78,95.68 H 1260.2"
         style="fill:#f89b17;fill-opacity:1;fill-rule:nonzero;stroke:none"
         id="path238" /><path
         d="m 1467.5,2459 c 5.34,-53.72 50.65,-95.68 105.78,-95.68 55.13,0 100.45,41.96 105.78,95.68 H 1467.5"
         style="fill:#f89b17;fill-opacity:1;fill-rule:nonzero;stroke:none"
         id="path240" /><path
         d="m 1768.35,2459 h -86.76 c 4.71,-47.39 40.54,-85.58 86.76,-93.94 V 2459"
         style="fill:#f89b17;fill-opacity:1;fill-rule:nonzero;stroke:none"
         id="path242" /><path
         d="m 1598.45,2959 h 748.01 c 0,-260.01 185,-505.01 185,-505.01 H 1598.45 V 2959"
         style="fill:#fccd37;fill-opacity:1;fill-rule:nonzero;stroke:none"
         id="path244" /><path
         d="m 2525.94,2459 c -5.33,-53.72 -50.65,-95.68 -105.78,-95.68 -55.13,0 -100.44,41.96 -105.78,95.68 h 211.56"
         style="fill:#f89b17;fill-opacity:1;fill-rule:nonzero;stroke:none"
         id="path246" /><path
         d="m 2318.63,2459 c -5.33,-53.72 -50.65,-95.68 -105.78,-95.68 -55.13,0 -100.44,41.96 -105.78,95.68 h 211.56"
         style="fill:#f89b17;fill-opacity:1;fill-rule:nonzero;stroke:none"
         id="path248" /><path
         d="m 2106.61,2459 c -5.34,-53.72 -50.65,-95.68 -105.78,-95.68 -55.13,0 -100.44,41.96 -105.78,95.68 h 211.56"
         style="fill:#f89b17;fill-opacity:1;fill-rule:nonzero;stroke:none"
         id="path250" /><path
         d="m 1899.3,2459 c -5.34,-53.72 -50.66,-95.68 -105.78,-95.68 -55.13,0 -100.44,41.96 -105.78,95.68 h 211.56"
         style="fill:#f89b17;fill-opacity:1;fill-rule:nonzero;stroke:none"
         id="path252" /><path
         d="m 1598.45,2459 h 86.76 c -4.71,-47.39 -40.54,-85.58 -86.76,-93.94 V 2459"
         style="fill:#f89b17;fill-opacity:1;fill-rule:nonzero;stroke:none"
         id="path254" /><g
         id="g256"><g
           id="g258"
           clip-path="url(#clipPath262)"><path
             d="m 2000.83,715.32 h -634.86 v 754.67 h 634.86 V 715.32"
             style="fill:url(#linearGradient268);fill-opacity:1;fill-rule:nonzero;stroke:none"
             id="path270" /></g></g><g
         id="g272"><g
           id="g274"
           clip-path="url(#clipPath278)"><path
             d="M 4338.52,715.32 H 2862.45 v 754.67 H 4338.52 V 715.32"
             style="fill:url(#linearGradient284);fill-opacity:1;fill-rule:nonzero;stroke:none"
             id="path286" /></g></g><path
         d="m 3603.63,710.309 h -20 v 759.681 h 20 V 710.309"
         style="fill:#65cbc2;fill-opacity:1;fill-rule:nonzero;stroke:none"
         id="path288" /><path
         d="m 1697.74,710.309 h -20 v 759.681 h 20 V 710.309"
         style="fill:#65cbc2;fill-opacity:1;fill-rule:nonzero;stroke:none"
         id="path290" /><g
         id="g292"><g
           id="g294"
           clip-path="url(#clipPath298)"><path
             d="m 1967.49,1694.4 c -7.6,278.82 -134.41,500.63 -289.75,500.63 -155.34,0 -282.15,-221.81 -289.75,-500.63 h 579.5"
             style="fill:url(#linearGradient304);fill-opacity:1;fill-rule:nonzero;stroke:none"
             id="path306" /><path
             d="m 1697.74,1477.66 h -20 v 759.67 h 20 v -759.67"
             style="fill:#65cbc2;fill-opacity:1;fill-rule:nonzero;stroke:none"
             id="path308" /><path
             d="m 1307.9,1897.5 v 20 h 759.68 v -20 H 1307.9"
             style="fill:#65cbc2;fill-opacity:1;fill-rule:nonzero;stroke:none"
             id="path310" /></g></g><path
         d="m 4022.28,498.191 -27.02,42.02 -19.37,-12.461 27,-42.02 c 9.78,-15.199 10.43,-33.761 1.76,-49.621 -8.66,-15.839 -24.6,-25.277 -42.65,-25.277 h -0.09 l -299.16,0.547 V 388.34 l 299.12,-0.551 h 0.14 c 26.59,0 50.08,13.93 62.85,37.262 12.8,23.379 11.83,50.719 -2.58,73.14"
         style="fill:#65cbc2;fill-opacity:1;fill-rule:nonzero;stroke:none"
         id="path312" /><path
         d="m 3542.38,764.93 h 468.54 l -19.16,-229.821 -323.15,-3.839 -126.23,233.66"
         style="fill:#fccd37;fill-opacity:1;fill-rule:nonzero;stroke:none"
         id="path314" /><path
         d="M 4008.02,880.07 3979.85,546.629 H 3674.81 L 3558.87,765.93 h -26.07 l 128.14,-242.34 h 340.09 l 28.16,333.441 h 100.1 v 23.039 h -121.27"
         style="fill:#338d8c;fill-opacity:1;fill-rule:nonzero;stroke:none"
         id="path316" /><path
         d="m 3804.89,355.762 c 0,-20.16 -16.35,-36.5 -36.5,-36.5 -20.17,0 -36.51,16.34 -36.51,36.5 0,20.168 16.34,36.508 36.51,36.508 20.15,0 36.5,-16.34 36.5,-36.508"
         style="fill:#338d8c;fill-opacity:1;fill-rule:nonzero;stroke:none"
         id="path318" /><path
         d="m 3788.22,355.762 c 0,-10.961 -8.88,-19.832 -19.83,-19.832 -10.96,0 -19.84,8.871 -19.84,19.832 0,10.957 8.88,19.84 19.84,19.84 10.95,0 19.83,-8.883 19.83,-19.84"
         style="fill:#65cbc2;fill-opacity:1;fill-rule:nonzero;stroke:none"
         id="path320" /><path
         d="m 3943.13,355.762 c 0,-20.16 -16.34,-36.5 -36.51,-36.5 -20.16,0 -36.5,16.34 -36.5,36.5 0,20.168 16.34,36.508 36.5,36.508 20.17,0 36.51,-16.34 36.51,-36.508"
         style="fill:#338d8c;fill-opacity:1;fill-rule:nonzero;stroke:none"
         id="path322" /><path
         d="m 3926.46,355.762 c 0,-10.961 -8.88,-19.832 -19.84,-19.832 -10.95,0 -19.83,8.871 -19.83,19.832 0,10.957 8.88,19.84 19.83,19.84 10.96,0 19.84,-8.883 19.84,-19.84"
         style="fill:#65cbc2;fill-opacity:1;fill-rule:nonzero;stroke:none"
         id="path324" /><path
         d="m 1153.28,350.582 c 0,0 6.69,-9.25 38.21,-17.281 6.94,-1.77 14.42,-2.981 14.42,-14.422 -14.72,0 -31.12,0 -31.12,0 l -31.81,5.492 v -5.492 h -17.18 c 0,0 -4.78,28.09 5.25,31.703 9.3,0 22.23,0 22.23,0"
         style="fill:#1f2c54;fill-opacity:1;fill-rule:nonzero;stroke:none"
         id="path326" /><path
         d="m 1154.92,370.762 -1.64,-20.18 v 0 c -6.27,-4.352 -14.5,-4.621 -21.05,-0.711 l -1.18,0.711 v 20.18 h 23.87"
         style="fill:#f8a37b;fill-opacity:1;fill-rule:nonzero;stroke:none"
         id="path328" /><path
         d="m 993.695,346.559 c 0,0 6.685,-9.258 38.205,-17.278 6.94,-1.769 14.42,-2.98 14.42,-14.429 -14.72,0 -31.11,0 -31.11,0 l -31.812,5.5 v -5.5 h -17.183 c 0,0 -4.785,28.097 5.25,31.707 9.293,0 22.23,0 22.23,0"
         style="fill:#1f2c54;fill-opacity:1;fill-rule:nonzero;stroke:none"
         id="path330" /><path
         d="m 995.328,366.742 -1.633,-20.183 v 0 c -6.269,-4.34 -14.5,-4.629 -21.054,-0.707 l -1.176,0.707 v 20.183 h 23.863"
         style="fill:#f8a37b;fill-opacity:1;fill-rule:nonzero;stroke:none"
         id="path332" /><path
         d="m 1167.6,866.801 -7.75,-506.992 h -36.94 c 0,0 -56.22,409.32 -44.22,506.992 12,97.66 88.91,0 88.91,0"
         style="fill:#196265;fill-opacity:1;fill-rule:nonzero;stroke:none"
         id="path334" /><path
         d="m 1128.55,866.898 c 0,0 -12.85,-155.738 -42.39,-241.949 -29.53,-86.211 -82.86,-265.14 -82.86,-265.14 h -38.226 c 0,0 63.846,373.91 49.246,507.089 v 0 h 114.23"
         style="fill:#338d8c;fill-opacity:1;fill-rule:nonzero;stroke:none"
         id="path336" /><g
         id="g338"><g
           id="g340"
           clip-path="url(#clipPath344)"><path
             d="m 1161.84,1124.96 c 0,0 45.52,-106.16 57.08,-106.16 9.24,0 -3.47,86.69 -3.47,86.69 h 38.12 c 0,0 47.95,-148.58 9.82,-175.72 -38.12,-27.149 -121.88,76.82 -121.88,76.82 l 20.33,118.37"
             style="fill:url(#linearGradient350);fill-opacity:1;fill-rule:nonzero;stroke:none"
             id="path352" /></g></g><path
         d="m 1026.1,853.43 13.79,-34.11 c 6.65,-13.398 31.06,-13.738 47.28,-9.488 2.43,0.648 3.28,3.68 1.59,5.527 -8.9,9.77 -32.01,34.789 -40.02,40.379 l -22.64,-2.308"
         style="fill:#f8a37b;fill-opacity:1;fill-rule:nonzero;stroke:none"
         id="path354" /><g
         id="g356"><g
           id="g358"
           clip-path="url(#clipPath362)"><path
             d="m 1124.16,1147.14 c 14.87,-0.14 29.06,-7.51 36.64,-20.31 2.65,-4.48 4.49,-9.43 4.49,-14.56 0,-18.49 0,-245.372 0,-245.372 H 1025.98 V 1096.3 c 0,0 2.85,51 52.71,51 21.23,0 35.77,-0.07 45.47,-0.16"
             style="fill:url(#linearGradient368);fill-opacity:1;fill-rule:nonzero;stroke:none"
             id="path370" /></g></g><path
         d="m 1162.97,866.801 v 220.359 l 4.63,-0.15 V 866.801 h -4.63"
         style="fill:#88d6bf;fill-opacity:1;fill-rule:nonzero;stroke:none"
         id="path372" /><path
         d="m 1073.21,1194.12 14.85,-55.93 c 0,0 12.69,-10.29 29.48,-5.83 16.81,4.47 13.59,16.58 13.59,16.58 l -9.52,35.84 -26.58,-0.13 -21.82,9.47"
         style="fill:#f68a76;fill-opacity:1;fill-rule:nonzero;stroke:none"
         id="path374" /><path
         d="m 1126.57,1174.72 c 5.13,1.53 9.7,3.65 11.61,6.56 8.61,27.73 -25.4,87.29 -25.4,87.29 l -51.56,-24.08 9.68,-43.4 c 2.59,-11.58 10.53,-21.25 21.39,-26.02 v 0 c 11.17,-3.35 23.11,-3.68 34.28,-0.35"
         style="fill:#f8a37b;fill-opacity:1;fill-rule:nonzero;stroke:none"
         id="path376" /><path
         d="m 1086.99,1250.14 c 0,0 18.86,1.4 36.87,9.78 18.01,8.39 0.38,26.01 0.38,26.01 0,0 -12.29,-10.11 -38.13,-13.04 -17.44,-1.97 -22.81,0.09 -32.05,-8.51 -12.54,-11.67 -1.99,-37.15 -1.99,-37.15 l 22.91,-53.76 3.02,0.8 c 0,0 -8.09,33.44 -11.1,44.75 1.8,5.99 5.22,6.91 8.2,6.31 3.23,-0.63 5.69,-3.3 6.53,-6.48 l 15.41,-58.04 c 0,0 41.19,-6.11 49.84,-0.73 8.63,5.39 -9.08,46.72 -9.08,46.72 0,0 -12.09,1.82 -18,-9.82 -5.84,-11.53 -18.52,-4.51 -18.52,-4.51 l -14.29,57.67"
         style="fill:#1f2c54;fill-opacity:1;fill-rule:nonzero;stroke:none"
         id="path378" /><path
         d="m 1246.25,1105.49 -1.34,7.31 c -2.97,16.21 -18.46,36.38 -34.07,41.67 h -16.19 l 5.02,-34.58 22.84,-14.4 h 23.74"
         style="fill:#f8a37b;fill-opacity:1;fill-rule:nonzero;stroke:none"
         id="path380" /><path
         d="m 1070.02,1225.55 c 4.06,1.44 9.11,-1.47 11.27,-6.52 2.16,-5.04 0.62,-10.3 -3.44,-11.75 -4.06,-1.45 -9.1,1.47 -11.27,6.52 -2.16,5.04 -0.62,10.3 3.44,11.75"
         style="fill:#f8a37b;fill-opacity:1;fill-rule:nonzero;stroke:none"
         id="path382" /><path
         d="m 1206.33,1123.73 31.53,-18.24 c 0,0 -19.78,0.19 -20.1,0 l -33.37,27.92 c 0,0 2.42,4.87 9.98,0.76 7.56,-4.12 11.96,-10.44 11.96,-10.44"
         style="fill:#f8a37b;fill-opacity:1;fill-rule:nonzero;stroke:none"
         id="path384" /><g
         id="g386"><g
           id="g388"
           clip-path="url(#clipPath392)"><path
             d="m 1040.81,1131.95 c 0,0 -78.759,-87.49 -78.759,-139.93 0,-52.438 63.929,-144.86 63.929,-144.86 l 31.58,9.238 c 0,0 -28.5,114.372 -28.5,144.802 0,30.42 58.54,75.03 58.54,75.03"
             style="fill:url(#linearGradient398);fill-opacity:1;fill-rule:nonzero;stroke:none"
             id="path400" /></g></g><path
         d="m 1031.37,1001.2 c 0,-26.188 23.19,-121.958 28.63,-144.278 -1.6,-0.422 -2.26,-0.543 -4.68,-1.184 -6.7,27.571 -28.57,119.723 -28.57,145.462 0,31.2 57.02,75.02 59.45,76.87 l 2.8,-3.68 c -0.58,-0.43 -57.63,-44.24 -57.63,-73.19"
         style="fill:#88d6bf;fill-opacity:1;fill-rule:nonzero;stroke:none"
         id="path402" /><path
         d="m 1185.73,1176.01 c 0,0 -2.23,-34.44 21.92,-58.84 1.49,-1.51 3.83,-2.49 6.25,-2.51 4.89,-0.05 8.07,2.07 10.58,3.14 3.7,1.57 5.29,3.76 5.95,5.51 0.58,1.48 0.16,3.13 -1.02,4.47 -5,5.75 -20.71,25.69 -17.18,45.51 -12.21,7.56 -26.5,2.72 -26.5,2.72"
         style="fill:#196265;fill-opacity:1;fill-rule:nonzero;stroke:none"
         id="path404" /><path
         d="m 1227.21,1119.34 c 2.24,1.48 2.6,2.35 3.22,3.97 0.58,1.48 0.16,3.13 -1.02,4.47 -5,5.75 -20.71,25.69 -17.18,45.51 -4.31,2.68 -8.88,3.78 -12.99,4.11 1.96,-21.04 8.21,-34.49 27.97,-58.06"
         style="fill:#338d8c;fill-opacity:1;fill-rule:nonzero;stroke:none"
         id="path406" /><path
         d="m 1207.75,1150.61 c 1.6,-4.7 4.38,-7.99 6.22,-7.37 1.85,0.63 2.05,4.94 0.46,9.63 -1.59,4.69 -4.38,7.98 -6.22,7.35 -1.85,-0.62 -2.05,-4.93 -0.46,-9.61"
         style="fill:#196265;fill-opacity:1;fill-rule:nonzero;stroke:none"
         id="path408" /><path
         d="m 1207.85,1160.04 1.93,0.72 -0.02,-1.01 -1.26,-0.7 -0.65,0.99"
         style="fill:#f78d38;fill-opacity:1;fill-rule:nonzero;stroke:none"
         id="path410" /><path
         d="m 1213.53,1143.17 2.34,0.78 -2.78,0.05 z"
         style="fill:#ee2662;fill-opacity:1;fill-rule:nonzero;stroke:none"
         id="path412" /><path
         d="m 1209.33,1151.13 c 1.59,-4.68 4.37,-7.98 6.22,-7.35 1.84,0.62 2.04,4.93 0.45,9.62 -1.59,4.7 -4.38,7.99 -6.22,7.36 -1.85,-0.62 -2.05,-4.93 -0.45,-9.63"
         style="fill:#65cbc2;fill-opacity:1;fill-rule:nonzero;stroke:none"
         id="path414" /><path
         d="m 1173.74,1203.29 -3.71,-0.46 c -7.08,-0.89 -12.18,-7.14 -11.34,-13.88 l 1.23,-9.74 c 0.84,-6.75 7.33,-11.54 14.41,-10.66 l 3.7,0.47 -4.29,34.27"
         style="fill:#196265;fill-opacity:1;fill-rule:nonzero;stroke:none"
         id="path416" /><path
         d="m 1288.19,1207.84 c 3.33,-26.58 -0.07,-48.9 -7.61,-49.85 -7.54,-0.95 -16.36,19.84 -19.69,46.43 -3.34,26.59 0.07,48.91 7.62,49.86 7.53,0.94 16.35,-19.85 19.68,-46.44"
         style="fill:#1f2c54;fill-opacity:1;fill-rule:nonzero;stroke:none"
         id="path418" /><path
         d="m 1258.06,1222.09 11.67,-5.67 1.95,-15.58 -9.85,-11.48 -6.39,19.77 2.62,12.96"
         style="fill:#ffffff;fill-opacity:1;fill-rule:nonzero;stroke:none"
         id="path420" /><path
         d="m 1260.89,1204.42 c -2.8,22.35 -0.83,41.62 4.34,47.79 -0.01,0.01 -0.02,0.02 -0.03,0.03 -41.13,-38.31 -93.57,-49.56 -93.57,-49.56 l 4.25,-33.99 c 0,0 71.2,13.03 100.99,-9.54 0.01,0.01 0.02,0.02 0.04,0.03 -6.54,4.68 -13.22,22.88 -16.02,45.24"
         style="fill:#183c5e;fill-opacity:1;fill-rule:nonzero;stroke:none"
         id="path422" /><path
         d="m 1272.18,1208.85 c 0.54,-4.32 0.32,-7.9 -0.5,-8.01 -0.81,-0.1 -1.91,3.32 -2.45,7.64 -0.54,4.32 -0.32,7.91 0.49,8 0.82,0.11 1.92,-3.31 2.46,-7.63"
         style="fill:#fccd37;fill-opacity:1;fill-rule:nonzero;stroke:none"
         id="path424" /><path
         d="m 1228.74,1130.6 c -1.12,-0.42 -5.02,-2.88 -17.62,-2.88 -9.16,0 -13.29,11.27 -14.86,17.4 -0.55,2.16 -1.04,5.22 1.66,6.6 l 14.73,2.04 16.09,-23.16"
         style="fill:#f8a37b;fill-opacity:1;fill-rule:nonzero;stroke:none"
         id="path426" /><path
         d="m 1853.79,1060.66 -42.2,-79.488 46.51,2.238 3.26,79.81 -7.57,-2.56"
         style="fill:#f8a37b;fill-opacity:1;fill-rule:nonzero;stroke:none"
         id="path428" /><path
         d="m 1920.07,1095.89 -38.99,0.06 -16.15,-251.989 h 69.86 l -14.72,251.929"
         style="fill:#ffffff;fill-opacity:1;fill-rule:nonzero;stroke:none"
         id="path430" /><path
         d="m 1991.65,356.16 c 0,0 9.63,-7.57 7.87,-17.219 -1.77,-9.66 -4.27,-32.269 -4.27,-32.269 h -9.91 l 0.31,21.09 c -0.03,1.379 -21.25,-21.09 -24.84,-21.09 h -52.43 c 0,0 -3.48,14.226 27.3,18.797 30.79,4.57 55.97,30.691 55.97,30.691"
         style="fill:#183c5e;fill-opacity:1;fill-rule:nonzero;stroke:none"
         id="path432" /><path
         d="m 1968.93,365.781 -7.11,-18.492 c -1.75,-5.078 -5.16,-9.391 -9.68,-12.289 -5,-3.199 -12.83,-7.668 -24.48,-11.109 14.25,-12.172 36.92,0.531 49.89,9.519 6.32,4.371 10.79,10.91 12.67,18.36 l 2.97,14.011 h -24.26"
         style="fill:#f8a37b;fill-opacity:1;fill-rule:nonzero;stroke:none"
         id="path434" /><path
         d="m 1891.78,356.16 c 0,0 9.63,-7.57 7.86,-17.219 -1.76,-9.66 -4.26,-32.269 -4.26,-32.269 h -9.91 l 0.31,21.09 c -0.03,1.379 -21.25,-21.09 -24.85,-21.09 h -52.42 c 0,0 -3.49,14.226 27.3,18.797 30.79,4.57 55.97,30.691 55.97,30.691"
         style="fill:#183c5e;fill-opacity:1;fill-rule:nonzero;stroke:none"
         id="path436" /><path
         d="m 1869.05,365.781 -7.1,-18.492 c -1.75,-5.078 -5.16,-9.391 -9.68,-12.289 -5,-3.199 -12.84,-7.668 -24.48,-11.109 14.25,-12.172 36.92,0.531 49.89,9.519 6.31,4.371 10.79,10.91 12.67,18.36 l 2.97,14.011 h -24.27"
         style="fill:#f8a37b;fill-opacity:1;fill-rule:nonzero;stroke:none"
         id="path438" /><path
         d="m 1949.98,843.961 c 0,0 6.54,-37.672 -31.12,-222.789 30.49,-96.473 -18.34,-257.902 -18.34,-257.902 h -35.59 l -24.23,480.691 h 109.28"
         style="fill:#1f2c54;fill-opacity:1;fill-rule:nonzero;stroke:none"
         id="path440" /><path
         d="m 1885.37,1095.89 -12.65,-305.742 -41.9,17.942 c 0,0 18.88,57.39 17.09,137.121 6.41,57.659 -26.31,27.289 13.77,138.309 14.93,12.43 23.69,12.37 23.69,12.37"
         style="fill:#fbd658;fill-opacity:1;fill-rule:nonzero;stroke:none"
         id="path442" /><path
         d="m 1879.89,1127.47 4.91,-25.78 c 2.16,-11.34 15.05,-16.96 24.83,-10.83 l 17.2,10.78 -30.71,69.4 -16.23,-43.57"
         style="fill:#f68a76;fill-opacity:1;fill-rule:nonzero;stroke:none"
         id="path444" /><path
         d="m 1984.22,843.961 c 0,0 46.63,-37.672 8.97,-222.789 30.49,-96.473 3.59,-257.902 3.59,-257.902 h -31.95 l -89.88,480.691 h 109.27"
         style="fill:#183c5e;fill-opacity:1;fill-rule:nonzero;stroke:none"
         id="path446" /><path
         d="m 1920.07,1121.81 c 0,0 39.36,-22.13 51.6,-41.88 11.66,-18.83 15.69,-61.67 16.81,-99.809 1.54,-52.383 26.83,-189.973 26.83,-189.973 h -105.52 l -2.62,299.532 12.9,32.13"
         style="fill:#fbd658;fill-opacity:1;fill-rule:nonzero;stroke:none"
         id="path448" /><path
         d="m 1842.39,1204.79 c 23.86,6.06 46.82,-18.41 46.82,-18.41 l 17.96,-96.7 27.61,42.56 c 0,0 1.57,57.82 -25.12,96.11 -19.11,23.18 -55.79,16.53 -74.34,-6.03 -9.02,-10.96 -10.9,-26.1 -10.03,-40.03 1.17,-18.72 6.48,-126.09 6.48,-126.09 l 54.67,40.5 c 0,0 -1.31,10.92 -6.55,30.77 -9,34.17 -53.52,73.26 -37.5,77.32"
         style="fill:#1f2c54;fill-opacity:1;fill-rule:nonzero;stroke:none"
         id="path450" /><path
         d="m 1896.36,1187.86 c -3.53,1.44 -8.09,-0.95 -10.19,-5.31 -2.1,-4.37 -0.94,-9.07 2.59,-10.5 3.53,-1.43 8.09,0.95 10.19,5.31 2.09,4.37 0.94,9.07 -2.59,10.5"
         style="fill:#f8a37b;fill-opacity:1;fill-rule:nonzero;stroke:none"
         id="path452" /><path
         d="m 1870.75,1122.94 c -4.44,-1.63 -8.79,-2.56 -11.67,-1.51 -20.76,15.03 -28.26,75.12 -28.26,75.12 l 16.44,17.47 32.74,-7.19 16.12,-35.79 c 4.31,-9.56 3.81,-20.59 -1.33,-29.71 v 0 c -6.12,-8.28 -14.38,-14.84 -24.04,-18.39"
         style="fill:#f8a37b;fill-opacity:1;fill-rule:nonzero;stroke:none"
         id="path454" /><path
         d="m 1836.92,1206.04 c 1.71,-18.17 52.29,-19.66 52.29,-19.66 l 2.64,24.61 -29.5,16.23 -23.34,-14.05 c 0,0 -2.35,-4.09 -2.09,-7.13"
         style="fill:#1f2c54;fill-opacity:1;fill-rule:nonzero;stroke:none"
         id="path456" /><path
         d="m 1838.03,1202.52 c 1.68,-6.77 -5.18,-18.56 -5.18,-18.56 l -4.02,7.28 0.11,6.29 3.98,4.91 c 0,0 3.42,6.84 5.11,0.08"
         style="fill:#1f2c54;fill-opacity:1;fill-rule:nonzero;stroke:none"
         id="path458" /><path
         d="m 1960.9,1079.93 c 51.06,-5.96 26.95,-137.668 15.98,-191.758 -2.7,-13.313 -16.31,-21.422 -29.26,-17.34 -44.43,14.008 -109.33,72.188 -109.33,72.188 l 10.29,12.96 86.21,-20.128 c 0,0 -33.08,150.988 26.11,144.078"
         style="fill:#f8a37b;fill-opacity:1;fill-rule:nonzero;stroke:none"
         id="path460" /><path
         d="m 1858.76,986.898 16.67,-103.187 c 0.49,-2.992 -1.82,-5.699 -4.85,-5.699 h -66 c -2.42,0 -4.48,1.758 -4.86,4.148 l -16.38,103.192 c -0.47,2.98 1.84,5.687 4.86,5.687 h 65.71 c 2.41,0 4.47,-1.75 4.85,-4.141"
         style="fill:#ffffff;fill-opacity:1;fill-rule:nonzero;stroke:none"
         id="path462" /><path
         d="m 1785.5,941.211 c -0.41,3.629 -0.06,5.898 1.15,13.41 1.58,9.758 1.16,25.051 11.13,17.43 9.42,-11.832 10.52,-24.379 10.52,-24.379 1.91,-6.942 -2.33,-16.582 -6.29,-21.801 l -6.86,-14.93 c 0,0 -11.83,13.77 -9.65,30.27"
         style="fill:#f8a37b;fill-opacity:1;fill-rule:nonzero;stroke:none"
         id="path464" /><g
         id="g466"><g
           id="g468"
           clip-path="url(#clipPath472)"><path
             d="m 1828.69,950.941 c 0,-2.793 -2.26,-5.043 -5.04,-5.043 -2.78,0 -5.04,2.25 -5.04,5.043 0,2.778 2.26,5.039 5.04,5.039 2.78,0 5.04,-2.261 5.04,-5.039"
             style="fill:url(#linearGradient478);fill-opacity:1;fill-rule:nonzero;stroke:none"
             id="path480" /></g></g><path
         d="m 2472.62,1032.26 112.35,-108.721 -35.83,-28.098 -77.85,60.618 1.33,76.201"
         style="fill:#196265;fill-opacity:1;fill-rule:nonzero;stroke:none"
         id="path482" /><path
         d="m 2459.83,1151.5 5.95,-47.99 -44.78,20.84 8.26,42.54 30.57,-15.39"
         style="fill:#f68a76;fill-opacity:1;fill-rule:nonzero;stroke:none"
         id="path484" /><path
         d="m 2472.43,1145.22 c 5.85,0.16 11.27,1.03 14.1,3.32 16.87,24.38 -2.35,90.08 -2.35,90.08 l -61.2,-9.95 -1.95,-44.03 c -0.52,-11.75 5.16,-23.03 15.29,-30.37 v 0 c 10.85,-6.05 23.38,-9.4 36.11,-9.05"
         style="fill:#f8a37b;fill-opacity:1;fill-rule:nonzero;stroke:none"
         id="path486" /><path
         d="m 2527.25,1247.5 c 5.33,-29.18 -58.43,-26.23 -79.78,-24.43 -3.61,0.3 -6.61,-2.68 -6.36,-6.29 l 0.52,-7.43 -10.13,-12.15 c -5.11,-6.13 -14.87,-4.86 -18.19,2.4 -7.19,15.69 -15.14,39.25 -3.17,47.9 18.4,13.28 41.8,-9.51 54.26,4.27 12.74,14.1 29.07,15.39 29.07,15.39 0,0 28.49,9.29 33.78,-19.66"
         style="fill:#1f2c54;fill-opacity:1;fill-rule:nonzero;stroke:none"
         id="path488" /><path
         d="m 2427.47,1210.6 c 3.39,2.96 9.72,2.41 14.16,-1.25 4.43,-3.68 5.27,-9.06 1.89,-12.03 -3.39,-2.96 -9.72,-2.4 -14.15,1.26 -4.44,3.67 -5.28,9.05 -1.9,12.02"
         style="fill:#f8a37b;fill-opacity:1;fill-rule:nonzero;stroke:none"
         id="path490" /><path
         d="m 2497.47,836.871 -31.69,266.639 -50.99,24.11 c 0,0 -89.56,-136.1 -76.47,-290.749 35.14,0 159.15,0 159.15,0"
         style="fill:#338d8c;fill-opacity:1;fill-rule:nonzero;stroke:none"
         id="path492" /><path
         d="m 2497.47,836.871 c 0,0 36.42,-170.262 30.09,-221.84 -6.32,-51.57 -30.09,-245.261 -30.09,-245.261 h -39.97 l 5.17,143.312 c -1.36,62.668 -15.88,124.367 -42.63,181.066 l -22.47,47.661 15.64,95.062 h 84.26"
         style="fill:#1f2c54;fill-opacity:1;fill-rule:nonzero;stroke:none"
         id="path494" /><path
         d="m 2488.69,346.391 c 0,0 16.01,-14.871 52.53,-24.161 8.04,-2.05 16.7,0.68 16.7,-12.582 -17.05,0 -44.31,0 -44.31,0 l -36.85,6.383 v -6.383 h -19.91 c 0,0 -5.54,32.563 6.08,36.743 10.77,0 25.76,0 25.76,0"
         style="fill:#1f2c54;fill-opacity:1;fill-rule:nonzero;stroke:none"
         id="path496" /><path
         d="m 2490.58,369.77 -1.89,-23.379 v 0 c -7.27,-5.039 -16.81,-5.36 -24.39,-0.821 l -1.37,0.821 v 23.379 h 27.65"
         style="fill:#f8a37b;fill-opacity:1;fill-rule:nonzero;stroke:none"
         id="path498" /><path
         d="m 2278.27,359.82 c 0,0 0.11,-24.851 50.04,-39.769 10.24,-3.063 6.91,-6.09 8.83,-10.403 -16.39,0 -57.45,0 -57.45,0 l -22.5,25.293 -6.99,-6 -16.23,15.93 c 0,0 7.58,23.059 19.93,23.258 10.19,-3.469 24.37,-8.309 24.37,-8.309"
         style="fill:#1f2c54;fill-opacity:1;fill-rule:nonzero;stroke:none"
         id="path500" /><path
         d="m 2287.61,381.352 -9.34,-21.532 v 0 c -8.49,-2.422 -17.63,0.36 -23.34,7.102 l -1.03,1.207 7.54,22.141 26.17,-8.918"
         style="fill:#f8a37b;fill-opacity:1;fill-rule:nonzero;stroke:none"
         id="path502" /><path
         d="m 2465.78,836.871 c 0,0 -33.2,-172.012 -69.59,-256.281 -30.24,-70.031 -104.72,-201.18 -104.72,-201.18 l -34.45,11.02 64.75,207.8 c 5.48,17.559 8.61,35.75 9.33,54.129 l 7.22,184.512 h 127.46"
         style="fill:#183c5e;fill-opacity:1;fill-rule:nonzero;stroke:none"
         id="path504" /><path
         d="m 2481.38,918.031 h 121.94 c 6.26,0 11.37,5.11 11.37,11.36 v 9.371 c 0,6.25 -5.11,11.367 -11.37,11.367 h -121.94 c -6.26,0 -11.37,-5.117 -11.37,-11.367 v -9.371 c 0,-6.25 5.11,-11.36 11.37,-11.36"
         style="fill:#f89b17;fill-opacity:1;fill-rule:nonzero;stroke:none"
         id="path506" /><path
         d="m 2591.9,917.199 v 0 c 0.77,0 1.39,0.621 1.39,1.383 v 31.348 c 0,0.75 -0.62,1.379 -1.39,1.379 v 0 c -0.75,0 -1.37,-0.629 -1.37,-1.379 v -31.348 c 0,-0.762 0.62,-1.383 1.37,-1.383"
         style="fill:#ffffff;fill-opacity:1;fill-rule:nonzero;stroke:none"
         id="path508" /><path
         d="m 2572.27,917.199 v 0 c 0.76,0 1.38,0.621 1.38,1.383 v 31.348 c 0,0.75 -0.62,1.379 -1.38,1.379 v 0 c -0.76,0 -1.38,-0.629 -1.38,-1.379 v -31.348 c 0,-0.762 0.62,-1.383 1.38,-1.383"
         style="fill:#ffffff;fill-opacity:1;fill-rule:nonzero;stroke:none"
         id="path510" /><path
         d="m 2552.84,917.199 v 0 c 0.75,0 1.37,0.621 1.37,1.383 v 31.348 c 0,0.75 -0.62,1.379 -1.37,1.379 v 0 c -0.76,0 -1.38,-0.629 -1.38,-1.379 v -31.348 c 0,-0.762 0.62,-1.383 1.38,-1.383"
         style="fill:#ffffff;fill-opacity:1;fill-rule:nonzero;stroke:none"
         id="path512" /><path
         d="m 2534.92,917.199 v 0 c 0.76,0 1.38,0.621 1.38,1.383 v 31.348 c 0,0.75 -0.62,1.379 -1.38,1.379 v 0 c -0.75,0 -1.38,-0.629 -1.38,-1.379 v -31.348 c 0,-0.762 0.63,-1.383 1.38,-1.383"
         style="fill:#ffffff;fill-opacity:1;fill-rule:nonzero;stroke:none"
         id="path514" /><path
         d="m 2515.75,917.199 v 0 c 0.75,0 1.37,0.621 1.37,1.383 v 31.348 c 0,0.75 -0.62,1.379 -1.37,1.379 v 0 c -0.76,0 -1.38,-0.629 -1.38,-1.379 v -31.348 c 0,-0.762 0.62,-1.383 1.38,-1.383"
         style="fill:#ffffff;fill-opacity:1;fill-rule:nonzero;stroke:none"
         id="path516" /><path
         d="m 2497.32,917.199 v 0 c 0.76,0 1.38,0.621 1.38,1.383 v 31.348 c 0,0.75 -0.62,1.379 -1.38,1.379 v 0 c -0.76,0 -1.38,-0.629 -1.38,-1.379 v -31.348 c 0,-0.762 0.62,-1.383 1.38,-1.383"
         style="fill:#ffffff;fill-opacity:1;fill-rule:nonzero;stroke:none"
         id="path518" /><path
         d="m 2480.03,891.66 h 138.32 c 1.83,0 3.32,1.488 3.32,3.32 v 23.11 c 0,1.82 -1.49,3.32 -3.32,3.32 h -138.32 c -1.83,0 -3.33,-1.5 -3.33,-3.32 v -23.11 c 0,-1.832 1.5,-3.32 3.33,-3.32"
         style="fill:#183c5e;fill-opacity:1;fill-rule:nonzero;stroke:none"
         id="path520" /><path
         d="M 2487.38,950.129 H 2629.3 V 975.02 H 2487.38 V 950.129"
         style="fill:#fccd37;fill-opacity:1;fill-rule:nonzero;stroke:none"
         id="path522" /><path
         d="m 2510.03,956.211 h 93.01 v 11.918 h -93.01 v -11.918"
         style="fill:#ffffff;fill-opacity:1;fill-rule:nonzero;stroke:none"
         id="path524" /><path
         d="m 2443.38,1034.61 c 0,0 -21.14,-54.551 -28.89,-82.212 -2.15,-7.679 0.93,-15.898 7.65,-20.187 37.24,-23.82 155.94,-41.18 155.94,-41.18 V 870.66 c 0,0 -166.6,-15.82 -229.59,21.422 -16.56,9.789 -22.47,30.938 -15.77,48.957 16.88,45.359 55.39,137.411 55.39,137.411"
         style="fill:#338d8c;fill-opacity:1;fill-rule:nonzero;stroke:none"
         id="path526" /><g
         id="g528"><g
           id="g530"
           clip-path="url(#clipPath534)"><path
             d="m 2413.96,952.961 c 7.55,27.418 28.22,81.829 28.42,82.379 l 3.87,-1.46 c -0.21,-0.55 -20.8,-54.79 -28.3,-82.021 -1.89,-6.89 0.78,-14.097 6.65,-17.918 17.31,-11.281 35.13,-17.832 46.68,-20.859 0.03,-2.031 0,-2.812 0,-4.184 -12.09,2.832 -29.4,8.832 -48.94,21.582 -7.38,4.801 -10.75,13.852 -8.38,22.481"
             style="fill:url(#linearGradient540);fill-opacity:1;fill-rule:nonzero;stroke:none"
             id="path542" /></g></g><g
         id="g544"><g
           id="g546"
           clip-path="url(#clipPath550)"><path
             d="m 2332.72,941.039 c 16.4,44.891 30.25,77.081 30.39,77.401 l 3.79,-1.63 c -0.14,-0.33 -13.94,-32.419 -30.29,-77.189 -6.5,-17.801 0.18,-37.449 15.54,-45.723 53.17,-28.628 126.1,-25.5 139.39,-24.668 l 2.14,-0.14 0.35,-3.828 c -0.26,-0.024 -8.24,-0.68 -20.91,-0.68 -28.75,0 -81.61,3.438 -122.93,25.68 -17.15,9.226 -24.66,31.058 -17.47,50.777"
             style="fill:url(#linearGradient556);fill-opacity:1;fill-rule:nonzero;stroke:none"
             id="path558" /></g></g><path
         d="m 2578.08,870.66 31.61,9.16 c 12.53,4.7 15.06,26.391 12.75,41.211 -0.35,2.219 -2.96,3.258 -4.77,1.918 -9.5,-7.027 -33.88,-25.301 -39.59,-31.918 V 870.66"
         style="fill:#f8a37b;fill-opacity:1;fill-rule:nonzero;stroke:none"
         id="path560" /><path
         d="m 4726.15,1152.67 c 3.12,-6.88 3.59,-14.66 1.32,-21.86 l -3.98,-28.37 -4.88,-3.27 -18.13,-7.49 c 1.94,5.58 0,11.36 0,11.36 l -7.97,29.33 c 0,0 -12.38,49.51 21.23,47.4 -0.18,40.33 11.06,33.67 11.06,33.67 l 0.78,-34.87 0.57,-25.9"
         style="fill:#f8a37b;fill-opacity:1;fill-rule:nonzero;stroke:none"
         id="path562" /><path
         d="m 4809.79,1054.61 c 0,0 -23.5,-89.688 -43.54,-91.29 -20.05,-1.601 -40.89,142.08 -40.89,142.08 l -27.25,-3.3 c 0,0 -10.59,-206.608 50.54,-210.37 61.14,-3.769 69.21,41.918 69.21,41.918 l -8.07,120.962"
         style="fill:#fbd658;fill-opacity:1;fill-rule:nonzero;stroke:none"
         id="path564" /><path
         d="m 4812.34,809.391 h 159.94 c 0,0 0,116.648 0,242.909 -45.7,69.73 -102.64,50.74 -102.64,50.74 0,0 -51.78,-0.94 -59.85,-48.43 0,-34.38 2.55,-245.219 2.55,-245.219"
         style="fill:#f89b17;fill-opacity:1;fill-rule:nonzero;stroke:none"
         id="path566" /><path
         d="m 4888.33,1135.29 2.36,-34.33 -1.12,-1.08 c -11.27,-10.72 -28.9,-10.96 -40.46,-0.56 v 0 l -0.54,25.84 39.76,10.13"
         style="fill:#f68a76;fill-opacity:1;fill-rule:nonzero;stroke:none"
         id="path568" /><path
         d="m 4900.89,1207.04 -2.89,-56.76 c -5.66,0.23 -8.97,-5.84 -7.88,-11.15 -0.6,-1.29 -0.92,-2.71 -0.96,-4.18 -9.79,-7.01 -27.61,-16.17 -50.58,-11.78 -35.91,6.88 -14.23,76.32 -14.23,76.32 l 76.54,7.55"
         style="fill:#f8a37b;fill-opacity:1;fill-rule:nonzero;stroke:none"
         id="path570" /><path
         d="m 4918.95,1164.4 c 0.27,4.17 5.94,13 9.1,15.73 20.34,17.59 2.14,30.43 -4.31,34.57 -7.14,4.59 -5.74,17.54 -14.98,24.76 -14.11,11.05 -27.72,-0.4 -36.75,1.28 -9.03,1.67 -14.65,13.69 -27.78,7.33 -13.15,-6.37 -11.69,-16.69 -15.91,-21.04 -4.21,-4.35 -11.94,7.68 -24.76,-6.06 -19.5,-20.91 18.73,-29.86 18.73,-29.86 0,0 20.93,-8.66 48.63,2.21 3.8,1.49 8.32,0.67 10.72,-2.63 6.61,-9.03 6.69,-56.39 6.69,-56.39 l 9.24,7.68 c 0,0 20.14,3.36 21.38,22.42"
         style="fill:#1f2c54;fill-opacity:1;fill-rule:nonzero;stroke:none"
         id="path572" /><path
         d="m 4897.39,1159.77 c -1.81,-4.47 -6.9,-6.6 -11.36,-4.77 -4.46,1.82 -6.59,6.91 -4.77,11.37 1.83,4.45 6.91,6.58 11.38,4.76 4.45,-1.82 6.58,-6.91 4.75,-11.36"
         style="fill:#f8a37b;fill-opacity:1;fill-rule:nonzero;stroke:none"
         id="path574" /><path
         d="m 4848.59,351.398 c 0,0 -9.02,-12.468 -51.5,-23.289 -9.36,-2.39 -19.44,-4.019 -19.44,-19.449 19.84,0 41.94,0 41.94,0 l 42.88,7.41 v -7.41 h 23.16 c 0,0 6.45,37.879 -7.08,42.738 -12.52,0 -29.96,0 -29.96,0"
         style="fill:#1f2c54;fill-opacity:1;fill-rule:nonzero;stroke:none"
         id="path576" /><path
         d="m 4846.39,378.602 2.2,-27.204 v 0 c 8.45,-5.859 19.54,-6.226 28.37,-0.949 l 1.59,0.949 v 27.204 h -32.16"
         style="fill:#f8a37b;fill-opacity:1;fill-rule:nonzero;stroke:none"
         id="path578" /><path
         d="m 4967.73,351.398 c 0,0 -9.01,-12.468 -51.5,-23.289 -9.35,-2.39 -19.44,-4.019 -19.44,-19.449 19.84,0 41.94,0 41.94,0 l 42.88,7.41 v -7.41 h 23.17 c 0,0 6.44,37.879 -7.08,42.738 -12.52,0 -29.97,0 -29.97,0"
         style="fill:#1f2c54;fill-opacity:1;fill-rule:nonzero;stroke:none"
         id="path580" /><path
         d="m 4965.53,378.602 2.2,-27.204 v 0 c 8.45,-5.859 19.56,-6.226 28.37,-0.949 l 1.6,0.949 v 27.204 h -32.17"
         style="fill:#f8a37b;fill-opacity:1;fill-rule:nonzero;stroke:none"
         id="path582" /><path
         d="m 4972.17,1052.3 c 0,0 47.94,-110.628 -13.22,-167.14 -61.18,-56.519 -144.2,-46.898 -144.2,-46.898 v 31.867 c 0,0 75.04,6.332 99.1,56.512 24.05,50.179 -9.62,93.589 -9.62,93.589"
         style="fill:#f89b17;fill-opacity:1;fill-rule:nonzero;stroke:none"
         id="path584" /><path
         d="m 4819.65,842.629 -38.29,-0.797 c -15.55,0.859 -25.89,24.066 -28.47,41.316 -0.39,2.59 2.16,4.653 4.64,3.793 12.99,-4.511 46.41,-16.332 55.05,-21.711 l 7.07,-22.601"
         style="fill:#f8a37b;fill-opacity:1;fill-rule:nonzero;stroke:none"
         id="path586" /><path
         d="M 4812.34,809.391 C 4764.65,674.719 4839.2,376.5 4839.2,376.5 h 42.49 c 0,0 -20.05,422.871 35.27,432.891 -84.55,0 -68.39,0 -104.62,0"
         style="fill:#196265;fill-opacity:1;fill-rule:nonzero;stroke:none"
         id="path588" /><path
         d="m 4922.38,960.109 c -0.49,-10.48 -2.94,-21.789 -8.53,-33.468 -24.06,-50.18 -103.01,-56.821 -103.01,-56.821 v -32.179 c 0,0 86.93,-9 148.11,47.519 22.16,20.481 29.97,48.078 30.94,74.949 h -67.51"
         style="fill:#fbd658;fill-opacity:1;fill-rule:nonzero;stroke:none"
         id="path590" /><path
         d="m 4922.02,955.25 c 1.67,0.77 3.36,1.492 5.02,2.289 2.88,37.07 -18.8,65.031 -19.07,65.371 l -3.77,-2.99 c 0.26,-0.33 21.86,-28.221 17.82,-64.67"
         style="fill:#f57c1b;fill-opacity:1;fill-rule:nonzero;stroke:none"
         id="path592" /><path
         d="m 4718.81,1148.41 c 0,0 8.82,2.64 10.2,18.74 1.38,16.1 8.99,11.12 8.99,11.12 0,0 -3.96,-63.47 -14.07,-65.85 -10.12,-2.39 -5.12,35.99 -5.12,35.99"
         style="fill:#f8a37b;fill-opacity:1;fill-rule:nonzero;stroke:none"
         id="path594" /><path
         d="M 4859.38,809.391 C 4846.39,644.262 4951.83,376.5 4951.83,376.5 h 50.5 c 0,0 -34.31,171.211 -35.02,331.898 -0.15,34.774 1.27,69.051 4.97,100.993 -34.88,0 -81.25,0 -112.9,0"
         style="fill:#338d8c;fill-opacity:1;fill-rule:nonzero;stroke:none"
         id="path596" /><path
         d="m 4246.95,1125.14 12.26,-61.72 32.23,55.54 -16.34,26.15 -28.15,-19.97"
         style="fill:#f68a76;fill-opacity:1;fill-rule:nonzero;stroke:none"
         id="path598" /><path
         d="m 4179.79,367.91 c 0,0 13.72,-7.23 11.55,-19.051 -2.16,-11.839 -5.6,-30.629 -5.6,-30.629 h -8.22 l -0.29,13.918 c -0.03,1.692 -1.96,2.641 -3.32,1.653 l -15.93,-11.582 c -3.57,-2.598 -7.85,-3.989 -12.26,-3.989 h -64.19 c 0,0 0,20.54 37.73,26.141 37.72,5.598 60.53,23.539 60.53,23.539"
         style="fill:#1f2c54;fill-opacity:1;fill-rule:nonzero;stroke:none"
         id="path600" /><path
         d="m 4161.06,390.68 -8.17,-23.758 c -1.72,-5.012 -5.08,-9.242 -9.53,-12.102 -4.92,-3.148 -12.64,-7.058 -24.1,-10.449 14.02,-11.98 36.35,0.039 49.12,8.879 6.22,4.32 10.62,10.738 12.48,18.09 l 4.88,19.34 h -24.68"
         style="fill:#f8a37b;fill-opacity:1;fill-rule:nonzero;stroke:none"
         id="path602" /><path
         d="m 4473.13,386.148 c 0,0 15.44,-1.378 18,-13.128 2.57,-11.75 6.64,-30.418 6.64,-30.418 l -7.58,-3.172 -5.63,12.742 c -0.69,1.539 -2.83,1.687 -3.7,0.238 l -10.24,-12.351 c -2.29,-3.758 -15.46,-20.137 -19.53,-21.829 h -66.1 c 0,0 2.24,16.61 41.37,22.872 37.65,6.019 46.77,45.046 46.77,45.046"
         style="fill:#1f2c54;fill-opacity:1;fill-rule:nonzero;stroke:none"
         id="path604" /><path
         d="m 4447.08,399.941 1.61,-25.07 c 0.34,-5.281 -1.12,-10.5 -4.13,-14.84 -3.33,-4.812 -8.93,-11.383 -18.2,-18.929 17.56,-5.641 33.51,14.046 41.89,27.128 4.08,6.372 5.67,14.008 4.54,21.5 l -2.95,19.719 -22.76,-9.508"
         style="fill:#f8a37b;fill-opacity:1;fill-rule:nonzero;stroke:none"
         id="path606" /><path
         d="m 4229.96,948.02 c 0.97,-28.489 -52.07,-118.879 -52.07,-118.879 0,0 44.82,-37.34 59.76,-37.34 13.3,37.09 22.41,56.758 22.41,56.758 0,0 -31.08,127.941 -30.1,99.461"
         style="fill:#338d8c;fill-opacity:1;fill-rule:nonzero;stroke:none"
         id="path608" /><path
         d="m 4232.01,1123.7 c -5.74,0.18 -11.07,1.11 -13.86,3.6 -16.58,26.43 2.31,97.66 2.31,97.66 l 60.17,-10.79 1.92,-47.73 c 0.51,-12.74 -5.07,-24.97 -15.04,-32.92 v 0 c -10.66,-6.57 -22.98,-10.2 -35.5,-9.82"
         style="fill:#f8a37b;fill-opacity:1;fill-rule:nonzero;stroke:none"
         id="path610" /><path
         d="m 4232.79,811.961 c -37.71,-81.41 -39.21,-238.27 -39.21,-238.27 l -36.6,-183.011 h 32.86 c 0,0 110.56,233.05 118.77,299.531 8.22,66.48 -18.67,118.758 -18.67,118.758 l -32.26,49.312 c 0,0 -10.73,-11.949 -24.89,-46.32"
         style="fill:#1f2c54;fill-opacity:1;fill-rule:nonzero;stroke:none"
         id="path612" /><path
         d="m 4274.25,765.648 c 0,0 22.41,-89.628 82.17,-194.199 40.33,-68.73 85.89,-176.277 85.89,-176.277 l 30.63,11.949 c 0,0 -15.33,103.668 -57.69,190.379 -8.68,17.77 -12.99,37.422 -12.83,57.211 0.8,94.609 -23.38,174.129 -23.38,174.129 l -104.79,-63.192"
         style="fill:#183c5e;fill-opacity:1;fill-rule:nonzero;stroke:none"
         id="path614" /><path
         d="m 4291.44,1118.96 c 0,0 -51.81,-74.69 -66.9,-110.89 -3.15,-7.56 -3.77,-15.941 -2.05,-23.961 25.22,-117.347 35.6,-208.75 39.06,-223.679 71.71,2.242 124.75,77.679 124.75,77.679 0,0 -10.8,22.512 -22.83,48.922 -15.84,34.758 -25.14,72.16 -27.68,110.258 -3.4,51.091 -12.24,89.561 -12.24,89.561 l -32.11,32.11"
         style="fill:#65cbc2;fill-opacity:1;fill-rule:nonzero;stroke:none"
         id="path616" /><path
         d="m 4282.58,1248.97 c 0,0 4.85,23.36 18.14,29.84 16.86,8.22 54.95,5.84 65.78,-53.85 10.83,-59.69 -19.1,-53.19 -20.17,-77.24 -1.06,-24.05 57.89,-32.41 61.63,-80.26 3.73,-47.84 -10.09,-57.55 -10.09,-57.55 0,0 -15.76,-31.129 -44.3,-19.301 -8.85,10.701 -8.11,23.721 -9.65,33.821 -1.55,10.15 -7.22,19.11 -15.69,24.91 -11.72,8.02 -31.16,21.79 -34.56,41.28 -3.31,18.99 5.32,40.19 13.27,54.79 8.27,15.21 12.51,32.27 12.72,49.58 0.18,15.5 -0.44,32.37 -3.58,39.72 -6.49,15.2 -15.36,6.01 -15.36,6.01 l -18.14,8.25"
         style="fill:#1f2c54;fill-opacity:1;fill-rule:nonzero;stroke:none"
         id="path618" /><path
         d="m 4220.46,1224.96 c 0,0 15.17,38.99 62.12,19.49 5.42,-2.26 5.42,-2.26 15.57,-9.74 32.88,-48.74 -15.57,-78.4 -15.57,-78.4 l -19.01,36.4 c 0,0 -17.89,-1.85 -28.91,7.67 -11.02,9.52 -14.2,24.58 -14.2,24.58"
         style="fill:#1f2c54;fill-opacity:1;fill-rule:nonzero;stroke:none"
         id="path620" /><path
         d="m 4276.21,1194.58 c -3.33,3.22 -9.56,2.62 -13.92,-1.36 -4.35,-3.97 -5.18,-9.8 -1.85,-13.02 3.33,-3.23 9.55,-2.62 13.92,1.35 4.35,3.98 5.18,9.81 1.85,13.03"
         style="fill:#f8a37b;fill-opacity:1;fill-rule:nonzero;stroke:none"
         id="path622" /><path
         d="m 4275.1,1247.15 3.23,3.76 c 2.41,2.8 6.55,3.32 9.59,1.2 l 10.5,-7.32 c 2.36,-1.66 3.02,-4.87 1.47,-7.31 l -1.74,-2.77 -23.05,12.44"
         style="fill:#fccd37;fill-opacity:1;fill-rule:nonzero;stroke:none"
         id="path624" /><path
         d="m 4265.02,1021.11 c 0,0 -7.95,35.85 26.42,41.83 27.57,4.8 31.36,-28.38 31.36,-28.38 0,0 16.44,-139.681 -7.47,-153.119 -23.89,-13.449 -173.29,-23.16 -173.29,-23.16 l -17.51,6.098 c -9.32,3.262 -16.87,10.23 -20.86,19.262 l -4.95,11.238 42.57,-17.18 c 0,0 141.29,26.141 141.29,42.571 0,16.441 -17.56,100.84 -17.56,100.84"
         style="fill:#f8a37b;fill-opacity:1;fill-rule:nonzero;stroke:none"
         id="path626" /><path
         d="m 3205.89,636.238 c 20.69,-148.019 -1.96,-301.379 -1.96,-300.039 0,1.332 -16.5,0 -16.5,0 0,0 -22.87,179.922 -28.23,239.981 -5.37,60.058 0,64.058 0,64.058 0,0 25.99,144.024 46.69,-4"
         style="fill:#f68a76;fill-opacity:1;fill-rule:nonzero;stroke:none"
         id="path628" /><path
         d="m 3211.32,1018.18 50.61,-32.27 21.36,44.49 -65.4,74.95 -6.57,-87.17"
         style="fill:#338d8c;fill-opacity:1;fill-rule:nonzero;stroke:none"
         id="path630" /><path
         d="m 2944.19,1314.58 61.96,-161.91 39.57,29.44 -88.42,149.05 -13.11,-16.58"
         style="fill:#f8a37b;fill-opacity:1;fill-rule:nonzero;stroke:none"
         id="path632" /><path
         d="m 2940.6,1369.55 c 4.87,-3.95 8.12,-9.58 9.12,-15.78 l 7.58,-22.61 -2.4,-4.25 -10.71,-12.33 c -0.63,4.88 -4.23,8.46 -4.23,8.46 l -16.85,18.87 c 0,0 -27.66,32.25 -1.85,43.19 -15.15,29.96 -4.31,29.19 -4.31,29.19 l 13.57,-25.67 10.08,-19.07"
         style="fill:#f8a37b;fill-opacity:1;fill-rule:nonzero;stroke:none"
         id="path634" /><path
         d="m 2936.71,1363.64 c 0,0 5.58,5.26 0.61,17.76 -4.96,12.5 2.55,11.63 2.55,11.63 0,0 20.7,-48.73 14.06,-54.27 -6.65,-5.55 -17.22,24.88 -17.22,24.88"
         style="fill:#f8a37b;fill-opacity:1;fill-rule:nonzero;stroke:none"
         id="path636" /><path
         d="m 3121.8,1119.37 -18.55,-1.44 -63.04,73.5 -34.06,-38.76 c 0,0 31.23,-58.99 76.95,-120.04 2.6,-12.42 16.14,-137.349 16.14,-137.349 h 109.31 c 0,0 -17.41,91.668 13.34,142.689 30.77,51 -100.09,81.4 -100.09,81.4"
         style="fill:#338d8c;fill-opacity:1;fill-rule:nonzero;stroke:none"
         id="path638" /><path
         d="m 3157.63,636.238 c 20.7,-148.019 -1.96,-301.379 -1.96,-300.039 0,1.332 -16.49,0 -16.49,0 0,0 -22.87,179.922 -28.23,239.981 -5.37,60.058 0,64.058 0,64.058 0,0 25.98,144.024 46.68,-4"
         style="fill:#f8a37b;fill-opacity:1;fill-rule:nonzero;stroke:none"
         id="path640" /><path
         d="m 3117.82,1233.69 62.97,-22.04 -6.21,-47 c -0.09,-0.67 -0.26,-1.31 -0.38,-1.96 -1.21,-0.22 -2.42,-0.44 -3.62,-0.74 -0.21,-0.05 -0.39,-0.11 -0.59,-0.17 -0.2,-0.04 -0.38,-0.07 -0.57,-0.11 -14.53,-3.57 -24.82,-15.58 -29.44,-29.47 -8.94,-1.5 -18.2,-1.52 -27.26,0.35 -6.16,1.27 -11.73,3.2 -14.3,6.17 -13.29,28.99 19.4,94.97 19.4,94.97"
         style="fill:#f8a37b;fill-opacity:1;fill-rule:nonzero;stroke:none"
         id="path642" /><path
         d="m 3116.19,1194.12 c 5.69,-11.35 6.72,-24.72 1.3,-36.19 -8.56,-18.13 -7.81,-38.46 -2.11,-49.62 3.89,-7.6 14.05,-15.2 23.07,-20.82 9.47,-5.9 15.7,-15.83 16.72,-26.94 1.39,-15.3 2.85,-34.07 15.94,-38.58 38.01,-13.08 51.95,-11.81 57.02,19.85 1.28,8.08 0.84,19.98 -3.29,31.03 -5.03,13.46 -4.59,28.43 1.18,41.59 3.79,8.68 7.17,18.25 7.17,24.83 0,7.18 -6.58,17.27 -13.47,25.89 -8.62,10.75 -12.42,24.43 -11.19,38.14 1.22,13.71 -0.7,31.23 -14.61,43.11 -25.97,22.15 -83.61,-12.72 -83.61,-12.72 0,0 -5.52,-16.8 5.88,-39.57"
         style="fill:#1f2c54;fill-opacity:1;fill-rule:nonzero;stroke:none"
         id="path644" /><path
         d="m 3283.29,1030.4 24.32,-25.17 c 16.14,-16.71 21.14,-39.992 1.74,-52.781 l -79.44,-63.078 7.3,-13.68 c 6.15,-11.519 5.02,-25.562 -2.91,-35.929 l -8.39,-11 -18.6,63.789 57.6,71.898 c 6.17,6.442 4.72,16.949 -2.98,21.461 v 0 l 21.36,44.49"
         style="fill:#f8a37b;fill-opacity:1;fill-rule:nonzero;stroke:none"
         id="path646" /><path
         d="m 3099.24,895.281 c 0,0 -16.02,-41.543 -16.02,-83.609 0,-23.121 20.03,-197.453 20.03,-197.453 0,0 84.81,0 104.06,0 -7.04,128.75 31.99,144.543 31.99,200.191 0,39.262 -30.75,80.871 -30.75,80.871 h -109.31"
         style="fill:#183c5e;fill-opacity:1;fill-rule:nonzero;stroke:none"
         id="path648" /><path
         d="m 3203.94,355.57 c 0,0 9.1,-7.16 7.43,-16.269 -1.67,-9.121 -4.04,-30.469 -4.04,-30.469 h -9.35 l 0.29,19.906 c -0.03,1.301 -20.07,-19.906 -23.47,-19.906 h -49.51 c 0,0 -3.28,13.43 25.79,17.738 29.08,4.321 52.86,29 52.86,29"
         style="fill:#1f2c54;fill-opacity:1;fill-rule:nonzero;stroke:none"
         id="path650" /><path
         d="m 3151.05,355.57 c 0,0 9.11,-7.16 7.44,-16.269 -1.66,-9.121 -4.03,-30.469 -4.03,-30.469 h -9.35 l 0.28,19.906 c -0.03,1.301 -20.07,-19.906 -23.46,-19.906 h -49.51 c 0,0 -3.29,13.43 25.78,17.738 29.08,4.321 52.85,29 52.85,29"
         style="fill:#1a385b;fill-opacity:1;fill-rule:nonzero;stroke:none"
         id="path652" /></g></g></svg>
